<?xml version="1.0" encoding="utf-8" standalone="no"?>
<!DOCTYPE svg PUBLIC "-//W3C//DTD SVG 1.1//EN"
  "http://www.w3.org/Graphics/SVG/1.1/DTD/svg11.dtd">
<svg xmlns:xlink="http://www.w3.org/1999/xlink" width="684pt" height="280.512pt" viewBox="0 0 684 280.512" xmlns="http://www.w3.org/2000/svg" version="1.1">
 <metadata>
  <rdf:RDF xmlns:dc="http://purl.org/dc/elements/1.1/" xmlns:cc="http://creativecommons.org/ns#" xmlns:rdf="http://www.w3.org/1999/02/22-rdf-syntax-ns#">
   <cc:Work>
    <dc:type rdf:resource="http://purl.org/dc/dcmitype/StillImage"/>
    <dc:date>2026-01-08T15:00:23.135828</dc:date>
    <dc:format>image/svg+xml</dc:format>
    <dc:creator>
     <cc:Agent>
      <dc:title>Matplotlib v3.10.8, https://matplotlib.org/</dc:title>
     </cc:Agent>
    </dc:creator>
   </cc:Work>
  </rdf:RDF>
 </metadata>
 <defs>
  <style type="text/css">*{stroke-linejoin: round; stroke-linecap: butt}</style>
 </defs>
 <g id="figure_1">
  <g id="patch_1">
   <path d="M 0 280.512 
L 684 280.512 
L 684 0 
L 0 0 
z
" style="fill: #ffffff"/>
  </g>
  <g id="axes_1">
   <g id="patch_2">
    <path d="M 177.902905 35.908335 
Q 233.702576 57.78234 289.275699 79.567537 
" clip-path="url(#p34945dc215)" style="fill: none; stroke: #000000; stroke-width: 0.217643; stroke-linecap: round"/>
    <path d="M 287.320738 77.398564 
L 289.275699 79.567537 
L 286.367544 79.830122 
z
" clip-path="url(#p34945dc215)" style="stroke: #000000; stroke-width: 0.217643; stroke-linecap: round"/>
   </g>
   <g id="patch_3">
    <path d="M 150.144307 37.807731 
Q 114.43979 57.784113 78.947626 77.641685 
" clip-path="url(#p34945dc215)" style="fill: none; stroke: #000000; stroke-width: 0.217643; stroke-linecap: round"/>
    <path d="M 81.864462 77.506089 
L 78.947626 77.641685 
L 80.589251 75.226859 
z
" clip-path="url(#p34945dc215)" style="stroke: #000000; stroke-width: 0.217643; stroke-linecap: round"/>
   </g>
   <g id="patch_4">
    <path d="M 159.943042 45.249271 
Q 156.897471 57.785149 153.909345 70.084573 
" clip-path="url(#p34945dc215)" style="fill: none; stroke: #000000; stroke-width: 0.217643; stroke-linecap: round"/>
    <path d="M 155.794867 67.854971 
L 153.909345 70.084573 
L 153.256977 67.238395 
z
" clip-path="url(#p34945dc215)" style="stroke: #000000; stroke-width: 0.217643; stroke-linecap: round"/>
   </g>
   <g id="patch_5">
    <path d="M 178.73213 32.97954 
Q 318.623361 57.783507 458.274997 82.544992 
" clip-path="url(#p34945dc215)" style="fill: none; stroke: #000000; stroke-width: 0.217643; stroke-linecap: round"/>
    <path d="M 455.931377 80.803222 
L 458.274997 82.544992 
L 455.475409 83.374826 
z
" clip-path="url(#p34945dc215)" style="stroke: #000000; stroke-width: 0.217643; stroke-linecap: round"/>
   </g>
   <g id="patch_6">
    <path d="M 283.84378 44.135137 
Q 290.475372 57.783286 297.000619 71.212572 
" clip-path="url(#p34945dc215)" style="fill: none; stroke: #000000; stroke-width: 0.217643; stroke-linecap: round"/>
    <path d="M 297.033748 68.292774 
L 297.000619 71.212572 
L 294.684658 69.43419 
z
" clip-path="url(#p34945dc215)" style="stroke: #000000; stroke-width: 0.217643; stroke-linecap: round"/>
   </g>
   <g id="patch_7">
    <path d="M 262.22137 34.159112 
Q 171.21071 57.783531 80.435577 81.346812 
" clip-path="url(#p34945dc215)" style="fill: none; stroke: #000000; stroke-width: 0.217643; stroke-linecap: round"/>
    <path d="M 83.291611 81.954582 
L 80.435577 81.346812 
L 82.635413 79.426646 
z
" clip-path="url(#p34945dc215)" style="stroke: #000000; stroke-width: 0.217643; stroke-linecap: round"/>
   </g>
   <g id="patch_8">
    <path d="M 262.994115 36.411708 
Q 213.667072 57.783821 164.563304 79.059195 
" clip-path="url(#p34945dc215)" style="fill: none; stroke: #000000; stroke-width: 0.217643; stroke-linecap: round"/>
    <path d="M 167.478908 79.219101 
L 164.563304 79.059195 
L 166.440591 76.822655 
z
" clip-path="url(#p34945dc215)" style="stroke: #000000; stroke-width: 0.217643; stroke-linecap: round"/>
   </g>
   <g id="patch_9">
    <path d="M 291.936223 34.437645 
Q 375.390921 57.782845 458.611282 81.062492 
" clip-path="url(#p34945dc215)" style="fill: none; stroke: #000000; stroke-width: 0.217643; stroke-linecap: round"/>
    <path d="M 456.447911 79.101334 
L 458.611282 81.062492 
L 455.744333 81.616494 
z
" clip-path="url(#p34945dc215)" style="stroke: #000000; stroke-width: 0.217643; stroke-linecap: round"/>
   </g>
   <g id="patch_10">
    <path d="M 401.98253 93.135199 
Q 435.024733 112.764792 467.857736 132.270104 
" clip-path="url(#p34945dc215)" style="fill: none; stroke: #000000; stroke-width: 0.217643; stroke-linecap: round"/>
    <path d="M 466.279325 129.813494 
L 467.857736 132.270104 
L 464.945401 132.058867 
z
" clip-path="url(#p34945dc215)" style="stroke: #000000; stroke-width: 0.217643; stroke-linecap: round"/>
   </g>
   <g id="patch_11">
    <path d="M 386.633697 100.51969 
Q 384.933697 112.765089 383.267158 124.769469 
" clip-path="url(#p34945dc215)" style="fill: none; stroke: #000000; stroke-width: 0.217643; stroke-linecap: round"/>
    <path d="M 384.919744 122.362131 
L 383.267158 124.769469 
L 382.332839 122.002997 
z
" clip-path="url(#p34945dc215)" style="stroke: #000000; stroke-width: 0.217643; stroke-linecap: round"/>
   </g>
   <g id="patch_12">
    <path d="M 475.783779 100.51969 
Q 477.483779 112.765089 479.150319 124.769469 
" clip-path="url(#p34945dc215)" style="fill: none; stroke: #000000; stroke-width: 0.217643; stroke-linecap: round"/>
    <path d="M 480.084638 122.002997 
L 479.150319 124.769469 
L 477.497733 122.362131 
z
" clip-path="url(#p34945dc215)" style="stroke: #000000; stroke-width: 0.217643; stroke-linecap: round"/>
   </g>
   <g id="patch_13">
    <path d="M 460.434947 93.135199 
Q 427.392744 112.764792 394.55974 132.270104 
" clip-path="url(#p34945dc215)" style="fill: none; stroke: #000000; stroke-width: 0.217643; stroke-linecap: round"/>
    <path d="M 397.472075 132.058867 
L 394.55974 132.270104 
L 396.138152 129.813494 
z
" clip-path="url(#p34945dc215)" style="stroke: #000000; stroke-width: 0.217643; stroke-linecap: round"/>
   </g>
   <g id="patch_14">
    <path d="M 138.077975 94.729216 
Q 114.918996 112.764591 91.951999 130.650457 
" clip-path="url(#p34945dc215)" style="fill: none; stroke: #000000; stroke-width: 0.217643; stroke-linecap: round"/>
    <path d="M 94.814929 130.076043 
L 91.951999 130.650457 
L 93.210225 128.015465 
z
" clip-path="url(#p34945dc215)" style="stroke: #000000; stroke-width: 0.217643; stroke-linecap: round"/>
   </g>
   <g id="patch_15">
    <path d="M 163.679525 92.7325 
Q 199.833004 112.764798 235.77364 132.679162 
" clip-path="url(#p34945dc215)" style="fill: none; stroke: #000000; stroke-width: 0.217643; stroke-linecap: round"/>
    <path d="M 234.122072 130.271125 
L 235.77364 132.679162 
L 232.85627 132.555594 
z
" clip-path="url(#p34945dc215)" style="stroke: #000000; stroke-width: 0.217643; stroke-linecap: round"/>
   </g>
   <g id="patch_16">
    <path d="M 204.602742 90.923711 
Q 149.267623 112.764781 94.158844 134.516514 
" clip-path="url(#p34945dc215)" style="fill: none; stroke: #000000; stroke-width: 0.217643; stroke-linecap: round"/>
    <path d="M 97.067604 134.772309 
L 94.158844 134.516514 
L 96.108736 132.342983 
z
" clip-path="url(#p34945dc215)" style="stroke: #000000; stroke-width: 0.217643; stroke-linecap: round"/>
   </g>
   <g id="patch_17">
    <path d="M 226.386893 98.72768 
Q 234.181139 112.763512 241.857253 126.586611 
" clip-path="url(#p34945dc215)" style="fill: none; stroke: #000000; stroke-width: 0.217643; stroke-linecap: round"/>
    <path d="M 241.730963 123.669358 
L 241.857253 126.586611 
L 239.447676 124.937291 
z
" clip-path="url(#p34945dc215)" style="stroke: #000000; stroke-width: 0.217643; stroke-linecap: round"/>
   </g>
   <g id="patch_18">
    <path d="M 537.900177 42.114931 
Q 550.95033 57.782024 563.844747 73.262149 
" clip-path="url(#p34945dc215)" style="fill: none; stroke: #000000; stroke-width: 0.217643; stroke-linecap: round"/>
    <path d="M 563.176572 70.41964 
L 563.844747 73.262149 
L 561.169835 72.091184 
z
" clip-path="url(#p34945dc215)" style="stroke: #000000; stroke-width: 0.217643; stroke-linecap: round"/>
   </g>
   <g id="patch_19">
    <path d="M 608.96947 42.215606 
Q 596.272446 57.783079 583.729218 73.161986 
" clip-path="url(#p34945dc215)" style="fill: none; stroke: #000000; stroke-width: 0.217643; stroke-linecap: round"/>
    <path d="M 586.391889 71.963444 
L 583.729218 73.161986 
L 584.367987 70.312724 
z
" clip-path="url(#p34945dc215)" style="stroke: #000000; stroke-width: 0.217643; stroke-linecap: round"/>
   </g>
   <g id="patch_20">
    <path d="M 129.748471 208.288617 
Q 138.769904 222.729277 147.662412 236.963567 
" clip-path="url(#p34945dc215)" style="fill: none; stroke: #000000; stroke-width: 0.217643; stroke-linecap: round"/>
    <path d="M 147.386147 234.056679 
L 147.662412 236.963567 
L 145.171143 235.440446 
z
" clip-path="url(#p34945dc215)" style="stroke: #000000; stroke-width: 0.217643; stroke-linecap: round"/>
   </g>
   <g id="patch_21">
    <path d="M 182.139134 208.288617 
Q 173.117701 222.729277 164.225192 236.963567 
" clip-path="url(#p34945dc215)" style="fill: none; stroke: #000000; stroke-width: 0.217643; stroke-linecap: round"/>
    <path d="M 166.716461 235.440446 
L 164.225192 236.963567 
L 164.501458 234.056679 
z
" clip-path="url(#p34945dc215)" style="stroke: #000000; stroke-width: 0.217643; stroke-linecap: round"/>
   </g>
   <g id="patch_22">
    <path d="M 155.057521 152.387303 
Q 143.061656 167.748784 131.215556 182.918481 
" clip-path="url(#p34945dc215)" style="fill: none; stroke: #000000; stroke-width: 0.217643; stroke-linecap: round"/>
    <path d="M 133.852222 181.663765 
L 131.215556 182.918481 
L 131.793783 180.056319 
z
" clip-path="url(#p34945dc215)" style="stroke: #000000; stroke-width: 0.217643; stroke-linecap: round"/>
   </g>
   <g id="patch_23">
    <path d="M 88.956557 152.487978 
Q 100.607423 167.748137 112.110627 182.814889 
" clip-path="url(#p34945dc215)" style="fill: none; stroke: #000000; stroke-width: 0.217643; stroke-linecap: round"/>
    <path d="M 111.563673 179.946586 
L 112.110627 182.814889 
L 109.487813 181.53147 
z
" clip-path="url(#p34945dc215)" style="stroke: #000000; stroke-width: 0.217643; stroke-linecap: round"/>
   </g>
   <g id="PathCollection_1">
    <path d="M 266.235478 41.174507 
L 287.999765 41.174507 
L 287.999765 19.41022 
L 266.235478 19.41022 
z
" clip-path="url(#p34945dc215)" style="fill: #8c564b; fill-opacity: 0.5; stroke: #000000; stroke-width: 0.217643"/>
    <path d="M 462.785138 96.156326 
L 484.549425 96.156326 
L 484.549425 74.392038 
L 462.785138 74.392038 
z
" clip-path="url(#p34945dc215)" style="fill: #1f77b4; fill-opacity: 0.5; stroke: #000000; stroke-width: 0.217643"/>
    <path d="M 292.950965 96.156326 
L 314.715253 96.156326 
L 314.715253 74.392038 
L 292.950965 74.392038 
z
" clip-path="url(#p34945dc215)" style="fill: #1f77b4; fill-opacity: 0.5; stroke: #000000; stroke-width: 0.217643"/>
    <path d="M 54.423641 96.156326 
L 76.187929 96.156326 
L 76.187929 74.392038 
L 54.423641 74.392038 
z
" clip-path="url(#p34945dc215)" style="fill: #1f77b4; fill-opacity: 0.5; stroke: #000000; stroke-width: 0.217643"/>
    <path d="M 145.061658 261.10178 
L 166.825946 261.10178 
L 166.825946 239.337493 
L 145.061658 239.337493 
z
" clip-path="url(#p34945dc215)" style="fill: #bcbd22; fill-opacity: 0.5; stroke: #000000; stroke-width: 0.217643"/>
   </g>
   <g id="PathCollection_2">
    <defs>
     <path id="C0_0_cc0ac4adfa" d="M 0 10.882144 
C 2.885978 10.882144 5.654143 9.735532 7.694838 7.694838 
C 9.735532 5.654143 10.882144 2.885978 10.882144 -0 
C 10.882144 -2.885978 9.735532 -5.654143 7.694838 -7.694838 
C 5.654143 -9.735532 2.885978 -10.882144 0 -10.882144 
C -2.885978 -10.882144 -5.654143 -9.735532 -7.694838 -7.694838 
C -9.735532 -5.654143 -10.882144 -2.885978 -10.882144 0 
C -10.882144 2.885978 -9.735532 5.654143 -7.694838 7.694838 
C -5.654143 9.735532 -2.885978 10.882144 0 10.882144 
z
"/>
    </defs>
    <g clip-path="url(#p34945dc215)">
     <use xlink:href="#C0_0_cc0ac4adfa" x="163.576799" y="30.292364" style="fill: #1f77b4; fill-opacity: 0.5; stroke: #000000; stroke-width: 0.217643"/>
    </g>
    <g clip-path="url(#p34945dc215)">
     <use xlink:href="#C0_0_cc0ac4adfa" x="618.694215" y="30.292364" style="fill: #f7b6d2; fill-opacity: 0.5; stroke: #000000; stroke-width: 0.217643"/>
    </g>
    <g clip-path="url(#p34945dc215)">
     <use xlink:href="#C0_0_cc0ac4adfa" x="79.617654" y="140.256" style="fill: #ffbb78; fill-opacity: 0.5; stroke: #000000; stroke-width: 0.217643"/>
    </g>
    <g clip-path="url(#p34945dc215)">
     <use xlink:href="#C0_0_cc0ac4adfa" x="481.300278" y="140.256" style="fill: #d62728; fill-opacity: 0.5; stroke: #000000; stroke-width: 0.217643"/>
    </g>
    <g clip-path="url(#p34945dc215)">
     <use xlink:href="#C0_0_cc0ac4adfa" x="381.117199" y="140.256" style="fill: #d62728; fill-opacity: 0.5; stroke: #000000; stroke-width: 0.217643"/>
    </g>
    <g clip-path="url(#p34945dc215)">
     <use xlink:href="#C0_0_cc0ac4adfa" x="249.448009" y="140.256" style="fill: #ffbb78; fill-opacity: 0.5; stroke: #000000; stroke-width: 0.217643"/>
    </g>
    <g clip-path="url(#p34945dc215)">
     <use xlink:href="#C0_0_cc0ac4adfa" x="573.85036" y="85.274182" style="fill: #f7b6d2; fill-opacity: 0.5; stroke: #000000; stroke-width: 0.217643"/>
    </g>
   </g>
   <g id="PathCollection_3">
    <path d="M 139.336911 96.156326 
L 161.101198 96.156326 
L 161.101198 74.392038 
L 139.336911 74.392038 
z
" clip-path="url(#p34945dc215)" style="fill: #e5e5e5; fill-opacity: 0.5; stroke: #000000; stroke-width: 0.217643"/>
    <path d="M 517.170238 41.174507 
L 538.934525 41.174507 
L 538.934525 19.41022 
L 517.170238 19.41022 
z
" clip-path="url(#p34945dc215)" style="fill: #e5e5e5; fill-opacity: 0.5; stroke: #000000; stroke-width: 0.217643"/>
    <path d="M 110.713174 206.119962 
L 132.477462 206.119962 
L 132.477462 184.355674 
L 110.713174 184.355674 
z
" clip-path="url(#p34945dc215)" style="fill: #e5e5e5; fill-opacity: 0.5; stroke: #000000; stroke-width: 0.217643"/>
    <path d="M 153.648779 151.138144 
L 175.413067 151.138144 
L 175.413067 129.373856 
L 153.648779 129.373856 
z
" clip-path="url(#p34945dc215)" style="fill: #e5e5e5; fill-opacity: 0.5; stroke: #000000; stroke-width: 0.217643"/>
   </g>
   <g id="PathCollection_4">
    <defs>
     <path id="C1_0_f68a18c6a6" d="M 0 10.882144 
C 2.885978 10.882144 5.654143 9.735532 7.694838 7.694838 
C 9.735532 5.654143 10.882144 2.885978 10.882144 -0 
C 10.882144 -2.885978 9.735532 -5.654143 7.694838 -7.694838 
C 5.654143 -9.735532 2.885978 -10.882144 0 -10.882144 
C -2.885978 -10.882144 -5.654143 -9.735532 -7.694838 -7.694838 
C -9.735532 -5.654143 -10.882144 -2.885978 -10.882144 0 
C -10.882144 2.885978 -9.735532 5.654143 -7.694838 7.694838 
C -5.654143 9.735532 -2.885978 10.882144 0 10.882144 
z
"/>
    </defs>
    <g clip-path="url(#p34945dc215)">
     <use xlink:href="#C1_0_f68a18c6a6" x="388.750195" y="85.274182" style="fill: #e5e5e5; fill-opacity: 0.5; stroke: #000000; stroke-width: 0.217643"/>
    </g>
    <g clip-path="url(#p34945dc215)">
     <use xlink:href="#C1_0_f68a18c6a6" x="218.916023" y="85.274182" style="fill: #e5e5e5; fill-opacity: 0.5; stroke: #000000; stroke-width: 0.217643"/>
    </g>
    <g clip-path="url(#p34945dc215)">
     <use xlink:href="#C1_0_f68a18c6a6" x="190.292286" y="195.237818" style="fill: #e5e5e5; fill-opacity: 0.5; stroke: #000000; stroke-width: 0.217643"/>
    </g>
   </g>
   <g id="text_1">
    <g clip-path="url(#p34945dc215)">
     <!-- GLN298 -->
     <g transform="translate(153.363187 31.705442) scale(0.05121 -0.05121)">
      <defs>
       <path id="DejaVuSans-47" d="M 3809 666 
L 3809 1919 
L 2778 1919 
L 2778 2438 
L 4434 2438 
L 4434 434 
Q 4069 175 3628 42 
Q 3188 -91 2688 -91 
Q 1594 -91 976 548 
Q 359 1188 359 2328 
Q 359 3472 976 4111 
Q 1594 4750 2688 4750 
Q 3144 4750 3555 4637 
Q 3966 4525 4313 4306 
L 4313 3634 
Q 3963 3931 3569 4081 
Q 3175 4231 2741 4231 
Q 1884 4231 1454 3753 
Q 1025 3275 1025 2328 
Q 1025 1384 1454 906 
Q 1884 428 2741 428 
Q 3075 428 3337 486 
Q 3600 544 3809 666 
z
" transform="scale(0.015625)"/>
       <path id="DejaVuSans-4c" d="M 628 4666 
L 1259 4666 
L 1259 531 
L 3531 531 
L 3531 0 
L 628 0 
L 628 4666 
z
" transform="scale(0.015625)"/>
       <path id="DejaVuSans-4e" d="M 628 4666 
L 1478 4666 
L 3547 763 
L 3547 4666 
L 4159 4666 
L 4159 0 
L 3309 0 
L 1241 3903 
L 1241 0 
L 628 0 
L 628 4666 
z
" transform="scale(0.015625)"/>
       <path id="DejaVuSans-32" d="M 1228 531 
L 3431 531 
L 3431 0 
L 469 0 
L 469 531 
Q 828 903 1448 1529 
Q 2069 2156 2228 2338 
Q 2531 2678 2651 2914 
Q 2772 3150 2772 3378 
Q 2772 3750 2511 3984 
Q 2250 4219 1831 4219 
Q 1534 4219 1204 4116 
Q 875 4013 500 3803 
L 500 4441 
Q 881 4594 1212 4672 
Q 1544 4750 1819 4750 
Q 2544 4750 2975 4387 
Q 3406 4025 3406 3419 
Q 3406 3131 3298 2873 
Q 3191 2616 2906 2266 
Q 2828 2175 2409 1742 
Q 1991 1309 1228 531 
z
" transform="scale(0.015625)"/>
       <path id="DejaVuSans-39" d="M 703 97 
L 703 672 
Q 941 559 1184 500 
Q 1428 441 1663 441 
Q 2288 441 2617 861 
Q 2947 1281 2994 2138 
Q 2813 1869 2534 1725 
Q 2256 1581 1919 1581 
Q 1219 1581 811 2004 
Q 403 2428 403 3163 
Q 403 3881 828 4315 
Q 1253 4750 1959 4750 
Q 2769 4750 3195 4129 
Q 3622 3509 3622 2328 
Q 3622 1225 3098 567 
Q 2575 -91 1691 -91 
Q 1453 -91 1209 -44 
Q 966 3 703 97 
z
M 1959 2075 
Q 2384 2075 2632 2365 
Q 2881 2656 2881 3163 
Q 2881 3666 2632 3958 
Q 2384 4250 1959 4250 
Q 1534 4250 1286 3958 
Q 1038 3666 1038 3163 
Q 1038 2656 1286 2365 
Q 1534 2075 1959 2075 
z
" transform="scale(0.015625)"/>
       <path id="DejaVuSans-38" d="M 2034 2216 
Q 1584 2216 1326 1975 
Q 1069 1734 1069 1313 
Q 1069 891 1326 650 
Q 1584 409 2034 409 
Q 2484 409 2743 651 
Q 3003 894 3003 1313 
Q 3003 1734 2745 1975 
Q 2488 2216 2034 2216 
z
M 1403 2484 
Q 997 2584 770 2862 
Q 544 3141 544 3541 
Q 544 4100 942 4425 
Q 1341 4750 2034 4750 
Q 2731 4750 3128 4425 
Q 3525 4100 3525 3541 
Q 3525 3141 3298 2862 
Q 3072 2584 2669 2484 
Q 3125 2378 3379 2068 
Q 3634 1759 3634 1313 
Q 3634 634 3220 271 
Q 2806 -91 2034 -91 
Q 1263 -91 848 271 
Q 434 634 434 1313 
Q 434 1759 690 2068 
Q 947 2378 1403 2484 
z
M 1172 3481 
Q 1172 3119 1398 2916 
Q 1625 2713 2034 2713 
Q 2441 2713 2670 2916 
Q 2900 3119 2900 3481 
Q 2900 3844 2670 4047 
Q 2441 4250 2034 4250 
Q 1625 4250 1398 4047 
Q 1172 3844 1172 3481 
z
" transform="scale(0.015625)"/>
      </defs>
      <use xlink:href="#DejaVuSans-47"/>
      <use xlink:href="#DejaVuSans-4c" transform="translate(77.490234 0)"/>
      <use xlink:href="#DejaVuSans-4e" transform="translate(133.203125 0)"/>
      <use xlink:href="#DejaVuSans-32" transform="translate(208.007812 0)"/>
      <use xlink:href="#DejaVuSans-39" transform="translate(271.630859 0)"/>
      <use xlink:href="#DejaVuSans-38" transform="translate(335.253906 0)"/>
     </g>
    </g>
   </g>
   <g id="text_2">
    <g clip-path="url(#p34945dc215)">
     <!-- GLN305 -->
     <g transform="translate(266.904009 31.705442) scale(0.05121 -0.05121)">
      <defs>
       <path id="DejaVuSans-33" d="M 2597 2516 
Q 3050 2419 3304 2112 
Q 3559 1806 3559 1356 
Q 3559 666 3084 287 
Q 2609 -91 1734 -91 
Q 1441 -91 1130 -33 
Q 819 25 488 141 
L 488 750 
Q 750 597 1062 519 
Q 1375 441 1716 441 
Q 2309 441 2620 675 
Q 2931 909 2931 1356 
Q 2931 1769 2642 2001 
Q 2353 2234 1838 2234 
L 1294 2234 
L 1294 2753 
L 1863 2753 
Q 2328 2753 2575 2939 
Q 2822 3125 2822 3475 
Q 2822 3834 2567 4026 
Q 2313 4219 1838 4219 
Q 1578 4219 1281 4162 
Q 984 4106 628 3988 
L 628 4550 
Q 988 4650 1302 4700 
Q 1616 4750 1894 4750 
Q 2613 4750 3031 4423 
Q 3450 4097 3450 3541 
Q 3450 3153 3228 2886 
Q 3006 2619 2597 2516 
z
" transform="scale(0.015625)"/>
       <path id="DejaVuSans-30" d="M 2034 4250 
Q 1547 4250 1301 3770 
Q 1056 3291 1056 2328 
Q 1056 1369 1301 889 
Q 1547 409 2034 409 
Q 2525 409 2770 889 
Q 3016 1369 3016 2328 
Q 3016 3291 2770 3770 
Q 2525 4250 2034 4250 
z
M 2034 4750 
Q 2819 4750 3233 4129 
Q 3647 3509 3647 2328 
Q 3647 1150 3233 529 
Q 2819 -91 2034 -91 
Q 1250 -91 836 529 
Q 422 1150 422 2328 
Q 422 3509 836 4129 
Q 1250 4750 2034 4750 
z
" transform="scale(0.015625)"/>
       <path id="DejaVuSans-35" d="M 691 4666 
L 3169 4666 
L 3169 4134 
L 1269 4134 
L 1269 2991 
Q 1406 3038 1543 3061 
Q 1681 3084 1819 3084 
Q 2600 3084 3056 2656 
Q 3513 2228 3513 1497 
Q 3513 744 3044 326 
Q 2575 -91 1722 -91 
Q 1428 -91 1123 -41 
Q 819 9 494 109 
L 494 744 
Q 775 591 1075 516 
Q 1375 441 1709 441 
Q 2250 441 2565 725 
Q 2881 1009 2881 1497 
Q 2881 1984 2565 2268 
Q 2250 2553 1709 2553 
Q 1456 2553 1204 2497 
Q 953 2441 691 2322 
L 691 4666 
z
" transform="scale(0.015625)"/>
      </defs>
      <use xlink:href="#DejaVuSans-47"/>
      <use xlink:href="#DejaVuSans-4c" transform="translate(77.490234 0)"/>
      <use xlink:href="#DejaVuSans-4e" transform="translate(133.203125 0)"/>
      <use xlink:href="#DejaVuSans-33" transform="translate(208.007812 0)"/>
      <use xlink:href="#DejaVuSans-30" transform="translate(271.630859 0)"/>
      <use xlink:href="#DejaVuSans-35" transform="translate(335.253906 0)"/>
     </g>
    </g>
   </g>
   <g id="text_3">
    <g clip-path="url(#p34945dc215)">
     <!-- GLN300 -->
     <g transform="translate(463.453669 86.68726) scale(0.05121 -0.05121)">
      <use xlink:href="#DejaVuSans-47"/>
      <use xlink:href="#DejaVuSans-4c" transform="translate(77.490234 0)"/>
      <use xlink:href="#DejaVuSans-4e" transform="translate(133.203125 0)"/>
      <use xlink:href="#DejaVuSans-33" transform="translate(208.007812 0)"/>
      <use xlink:href="#DejaVuSans-30" transform="translate(271.630859 0)"/>
      <use xlink:href="#DejaVuSans-30" transform="translate(335.253906 0)"/>
     </g>
    </g>
   </g>
   <g id="text_4">
    <g clip-path="url(#p34945dc215)">
     <!-- GLN289B -->
     <g transform="translate(606.723857 31.705442) scale(0.05121 -0.05121)">
      <defs>
       <path id="DejaVuSans-42" d="M 1259 2228 
L 1259 519 
L 2272 519 
Q 2781 519 3026 730 
Q 3272 941 3272 1375 
Q 3272 1813 3026 2020 
Q 2781 2228 2272 2228 
L 1259 2228 
z
M 1259 4147 
L 1259 2741 
L 2194 2741 
Q 2656 2741 2882 2914 
Q 3109 3088 3109 3444 
Q 3109 3797 2882 3972 
Q 2656 4147 2194 4147 
L 1259 4147 
z
M 628 4666 
L 2241 4666 
Q 2963 4666 3353 4366 
Q 3744 4066 3744 3513 
Q 3744 3084 3544 2831 
Q 3344 2578 2956 2516 
Q 3422 2416 3680 2098 
Q 3938 1781 3938 1306 
Q 3938 681 3513 340 
Q 3088 0 2303 0 
L 628 0 
L 628 4666 
z
" transform="scale(0.015625)"/>
      </defs>
      <use xlink:href="#DejaVuSans-47"/>
      <use xlink:href="#DejaVuSans-4c" transform="translate(77.490234 0)"/>
      <use xlink:href="#DejaVuSans-4e" transform="translate(133.203125 0)"/>
      <use xlink:href="#DejaVuSans-32" transform="translate(208.007812 0)"/>
      <use xlink:href="#DejaVuSans-38" transform="translate(271.630859 0)"/>
      <use xlink:href="#DejaVuSans-39" transform="translate(335.253906 0)"/>
      <use xlink:href="#DejaVuSans-42" transform="translate(398.876953 0)"/>
     </g>
    </g>
   </g>
   <g id="text_5">
    <g clip-path="url(#p34945dc215)">
     <!-- GLN301 -->
     <g transform="translate(69.404042 141.669078) scale(0.05121 -0.05121)">
      <defs>
       <path id="DejaVuSans-31" d="M 794 531 
L 1825 531 
L 1825 4091 
L 703 3866 
L 703 4441 
L 1819 4666 
L 2450 4666 
L 2450 531 
L 3481 531 
L 3481 0 
L 794 0 
L 794 531 
z
" transform="scale(0.015625)"/>
      </defs>
      <use xlink:href="#DejaVuSans-47"/>
      <use xlink:href="#DejaVuSans-4c" transform="translate(77.490234 0)"/>
      <use xlink:href="#DejaVuSans-4e" transform="translate(133.203125 0)"/>
      <use xlink:href="#DejaVuSans-33" transform="translate(208.007812 0)"/>
      <use xlink:href="#DejaVuSans-30" transform="translate(271.630859 0)"/>
      <use xlink:href="#DejaVuSans-31" transform="translate(335.253906 0)"/>
     </g>
    </g>
   </g>
   <g id="text_6">
    <g clip-path="url(#p34945dc215)">
     <!-- GLN280 -->
     <g transform="translate(293.619497 86.68726) scale(0.05121 -0.05121)">
      <use xlink:href="#DejaVuSans-47"/>
      <use xlink:href="#DejaVuSans-4c" transform="translate(77.490234 0)"/>
      <use xlink:href="#DejaVuSans-4e" transform="translate(133.203125 0)"/>
      <use xlink:href="#DejaVuSans-32" transform="translate(208.007812 0)"/>
      <use xlink:href="#DejaVuSans-38" transform="translate(271.630859 0)"/>
      <use xlink:href="#DejaVuSans-30" transform="translate(335.253906 0)"/>
     </g>
    </g>
   </g>
   <g id="text_7">
    <g clip-path="url(#p34945dc215)">
     <!-- GLN291 -->
     <g transform="translate(55.092173 86.68726) scale(0.05121 -0.05121)">
      <use xlink:href="#DejaVuSans-47"/>
      <use xlink:href="#DejaVuSans-4c" transform="translate(77.490234 0)"/>
      <use xlink:href="#DejaVuSans-4e" transform="translate(133.203125 0)"/>
      <use xlink:href="#DejaVuSans-32" transform="translate(208.007812 0)"/>
      <use xlink:href="#DejaVuSans-39" transform="translate(271.630859 0)"/>
      <use xlink:href="#DejaVuSans-31" transform="translate(335.253906 0)"/>
     </g>
    </g>
   </g>
   <g id="text_8">
    <g clip-path="url(#p34945dc215)">
     <!-- GLN277 -->
     <g transform="translate(471.086666 141.669078) scale(0.05121 -0.05121)">
      <defs>
       <path id="DejaVuSans-37" d="M 525 4666 
L 3525 4666 
L 3525 4397 
L 1831 0 
L 1172 0 
L 2766 4134 
L 525 4134 
L 525 4666 
z
" transform="scale(0.015625)"/>
      </defs>
      <use xlink:href="#DejaVuSans-47"/>
      <use xlink:href="#DejaVuSans-4c" transform="translate(77.490234 0)"/>
      <use xlink:href="#DejaVuSans-4e" transform="translate(133.203125 0)"/>
      <use xlink:href="#DejaVuSans-32" transform="translate(208.007812 0)"/>
      <use xlink:href="#DejaVuSans-37" transform="translate(271.630859 0)"/>
      <use xlink:href="#DejaVuSans-37" transform="translate(335.253906 0)"/>
     </g>
    </g>
   </g>
   <g id="text_9">
    <g clip-path="url(#p34945dc215)">
     <!-- GLN307 -->
     <g transform="translate(370.903587 141.669078) scale(0.05121 -0.05121)">
      <use xlink:href="#DejaVuSans-47"/>
      <use xlink:href="#DejaVuSans-4c" transform="translate(77.490234 0)"/>
      <use xlink:href="#DejaVuSans-4e" transform="translate(133.203125 0)"/>
      <use xlink:href="#DejaVuSans-33" transform="translate(208.007812 0)"/>
      <use xlink:href="#DejaVuSans-30" transform="translate(271.630859 0)"/>
      <use xlink:href="#DejaVuSans-37" transform="translate(335.253906 0)"/>
     </g>
    </g>
   </g>
   <g id="text_10">
    <g clip-path="url(#p34945dc215)">
     <!-- GLN306 -->
     <g transform="translate(239.234397 141.669078) scale(0.05121 -0.05121)">
      <defs>
       <path id="DejaVuSans-36" d="M 2113 2584 
Q 1688 2584 1439 2293 
Q 1191 2003 1191 1497 
Q 1191 994 1439 701 
Q 1688 409 2113 409 
Q 2538 409 2786 701 
Q 3034 994 3034 1497 
Q 3034 2003 2786 2293 
Q 2538 2584 2113 2584 
z
M 3366 4563 
L 3366 3988 
Q 3128 4100 2886 4159 
Q 2644 4219 2406 4219 
Q 1781 4219 1451 3797 
Q 1122 3375 1075 2522 
Q 1259 2794 1537 2939 
Q 1816 3084 2150 3084 
Q 2853 3084 3261 2657 
Q 3669 2231 3669 1497 
Q 3669 778 3244 343 
Q 2819 -91 2113 -91 
Q 1303 -91 875 529 
Q 447 1150 447 2328 
Q 447 3434 972 4092 
Q 1497 4750 2381 4750 
Q 2619 4750 2861 4703 
Q 3103 4656 3366 4563 
z
" transform="scale(0.015625)"/>
      </defs>
      <use xlink:href="#DejaVuSans-47"/>
      <use xlink:href="#DejaVuSans-4c" transform="translate(77.490234 0)"/>
      <use xlink:href="#DejaVuSans-4e" transform="translate(133.203125 0)"/>
      <use xlink:href="#DejaVuSans-33" transform="translate(208.007812 0)"/>
      <use xlink:href="#DejaVuSans-30" transform="translate(271.630859 0)"/>
      <use xlink:href="#DejaVuSans-36" transform="translate(335.253906 0)"/>
     </g>
    </g>
   </g>
   <g id="text_11">
    <g clip-path="url(#p34945dc215)">
     <!-- GLN288 -->
     <g transform="translate(563.636748 86.68726) scale(0.05121 -0.05121)">
      <use xlink:href="#DejaVuSans-47"/>
      <use xlink:href="#DejaVuSans-4c" transform="translate(77.490234 0)"/>
      <use xlink:href="#DejaVuSans-4e" transform="translate(133.203125 0)"/>
      <use xlink:href="#DejaVuSans-32" transform="translate(208.007812 0)"/>
      <use xlink:href="#DejaVuSans-38" transform="translate(271.630859 0)"/>
      <use xlink:href="#DejaVuSans-38" transform="translate(335.253906 0)"/>
     </g>
    </g>
   </g>
   <g id="text_12">
    <g clip-path="url(#p34945dc215)">
     <!-- GLN309 -->
     <g transform="translate(145.73019 251.632715) scale(0.05121 -0.05121)">
      <use xlink:href="#DejaVuSans-47"/>
      <use xlink:href="#DejaVuSans-4c" transform="translate(77.490234 0)"/>
      <use xlink:href="#DejaVuSans-4e" transform="translate(133.203125 0)"/>
      <use xlink:href="#DejaVuSans-33" transform="translate(208.007812 0)"/>
      <use xlink:href="#DejaVuSans-30" transform="translate(271.630859 0)"/>
      <use xlink:href="#DejaVuSans-39" transform="translate(335.253906 0)"/>
     </g>
    </g>
   </g>
  </g>
 </g>
 <defs>
  <clipPath id="p34945dc215">
   <rect x="7.2" y="7.2" width="669.6" height="266.112"/>
  </clipPath>
 </defs>
</svg>
