<?xml version="1.0" encoding="UTF-8" standalone="no"?>
<svg
   width="575.370361328125pt"
   height="241.9092102050781pt"
   viewBox="0 0 575.370361328125 241.9092158897419"
   version="1.1"
   id="svg135"
   sodipodi:docname="inferred_pedigree_cropped.svg"
   inkscape:version="1.4 (e7c3feb1, 2024-10-09)"
   inkscape:export-filename="inferred_pedigree_cropped.pdf"
   inkscape:export-xdpi="96"
   inkscape:export-ydpi="96"
   xmlns:inkscape="http://www.inkscape.org/namespaces/inkscape"
   xmlns:sodipodi="http://sodipodi.sourceforge.net/DTD/sodipodi-0.dtd"
   xmlns:xlink="http://www.w3.org/1999/xlink"
   xmlns="http://www.w3.org/2000/svg"
   xmlns:svg="http://www.w3.org/2000/svg"
   xmlns:rdf="http://www.w3.org/1999/02/22-rdf-syntax-ns#"
   xmlns:cc="http://creativecommons.org/ns#"
   xmlns:dc="http://purl.org/dc/elements/1.1/">
  <sodipodi:namedview
     id="namedview135"
     pagecolor="#ffffff"
     bordercolor="#000000"
     borderopacity="0.25"
     inkscape:showpageshadow="2"
     inkscape:pageopacity="0.0"
     inkscape:pagecheckerboard="0"
     inkscape:deskcolor="#d1d1d1"
     inkscape:document-units="pt"
     inkscape:zoom="0.5176915295272582"
     inkscape:cx="423.031839443046"
     inkscape:cy="51.18878422484347"
     inkscape:window-width="1456"
     inkscape:window-height="916"
     inkscape:window-x="0"
     inkscape:window-y="38"
     inkscape:window-maximized="0"
     inkscape:current-layer="svg135">
    <inkscape:page
       x="0"
       y="0"
       width="575.370361328125"
       height="241.9092102050781"
       id="page135"
       margin="0"
       bleed="1" />
  </sodipodi:namedview>
  <metadata
     id="metadata1">
    <rdf:RDF>
      <cc:Work>
        <dc:type
           rdf:resource="http://purl.org/dc/dcmitype/StillImage" />
        <dc:date>2025-12-13T13:37:49.130816</dc:date>
        <dc:format>image/svg+xml</dc:format>
        <dc:creator>
          <cc:Agent>
            <dc:title>Matplotlib v3.10.8, https://matplotlib.org/</dc:title>
          </cc:Agent>
        </dc:creator>
      </cc:Work>
    </rdf:RDF>
  </metadata>
  <defs
     id="defs1">
    <style
       type="text/css"
       id="style1">*{stroke-linejoin: round; stroke-linecap: butt}</style>
  </defs>
  <path
     d="M -54.31481950363256,261.2106014963674 H 629.6851804963673 V -19.30139850363254 H -54.31481950363256 Z"
     style="fill:#ffffff"
     id="path1" />
  <g
     id="patch_2"
     transform="translate(-54.31481950363256,-19.30139850363254)">
    <path
       d="m 473.671528,100.51969 q 1.6912520000001,12.245399 3.3492130000001,24.249755"
       clip-path="url(#pbdbefc3088)"
       style="fill:none;stroke:#000000;stroke-width:0.217643;stroke-linecap:round"
       id="path2" />
    <path
       d="m 477.956998,122.003629 -0.936257,2.765816 -1.650898,-2.408495 z"
       clip-path="url(#pbdbefc3088)"
       style="stroke:#000000;stroke-width:0.217643;stroke-linecap:round"
       id="path3" />
  </g>
  <g
     id="patch_3"
     transform="translate(-54.31481950363256,-19.30139850363254)">
    <path
       d="M 458.351101,93.165402 Q 425.528876,112.765167 392.915568,132.240178"
       clip-path="url(#pbdbefc3088)"
       style="fill:none;stroke:#000000;stroke-width:0.217643;stroke-linecap:round"
       id="path4" />
    <path
       d="m 395.827417,132.022336 -2.911849,0.217842 1.572836,-2.460184 z"
       clip-path="url(#pbdbefc3088)"
       style="stroke:#000000;stroke-width:0.217643;stroke-linecap:round"
       id="path5" />
  </g>
  <g
     id="patch_4"
     transform="translate(-54.31481950363256,-19.30139850363254)">
    <path
       d="M 400.300625,93.165402 Q 433.12285,112.765167 465.736157,132.240178"
       clip-path="url(#pbdbefc3088)"
       style="fill:none;stroke:#000000;stroke-width:0.217643;stroke-linecap:round"
       id="path6" />
    <path
       d="m 464.163322,129.779994 1.572835,2.460184 -2.911848,-0.217842 z"
       clip-path="url(#pbdbefc3088)"
       style="stroke:#000000;stroke-width:0.217643;stroke-linecap:round"
       id="path7" />
  </g>
  <g
     id="patch_5"
     transform="translate(-54.31481950363256,-19.30139850363254)">
    <path
       d="m 384.980198,100.51969 q -1.691253,12.245399 -3.349213,24.249755"
       clip-path="url(#pbdbefc3088)"
       style="fill:none;stroke:#000000;stroke-width:0.217643;stroke-linecap:round"
       id="path8" />
    <path
       d="m 383.281883,122.36095 -1.650898,2.408495 -0.936258,-2.765816 z"
       clip-path="url(#pbdbefc3088)"
       style="stroke:#000000;stroke-width:0.217643;stroke-linecap:round"
       id="path9" />
  </g>
  <g
     id="patch_6"
     transform="translate(-54.31481950363256,-19.30139850363254)">
    <path
       d="m 543.654394,42.443802 q 11.916343,15.338577 23.683401,30.48499699999996"
       clip-path="url(#pbdbefc3088)"
       style="fill:none;stroke:#000000;stroke-width:0.217643;stroke-linecap:round"
       id="path10" />
    <path
       d="m 566.766729,70.0652 0.571066,2.86359899999998 -2.633519,-1.26130599999999 z"
       clip-path="url(#pbdbefc3088)"
       style="stroke:#000000;stroke-width:0.217643;stroke-linecap:round"
       id="path11" />
  </g>
  <g
     id="patch_7"
     transform="translate(-54.31481950363256,-19.30139850363254)">
    <path
       d="M 609.387229,42.544477 Q 597.8126079999999,57.7818 586.3851779999996,72.82535599999998"
       clip-path="url(#pbdbefc3088)"
       style="fill:none;stroke:#000000;stroke-width:0.217643;stroke-linecap:round"
       id="path12" />
    <path
       d="m 589.004848,71.53553399999998 -2.6196700000004,1.289822 0.539944,-2.86963 z"
       clip-path="url(#pbdbefc3088)"
       style="stroke:#000000;stroke-width:0.217643;stroke-linecap:round"
       id="path13" />
  </g>
  <g
     id="patch_8"
     transform="translate(-54.31481950363256,-19.30139850363254)">
    <path
       d="m 159.456055,45.249271 q -3.029309,12.53343500000001 -6.001451,24.830349"
       clip-path="url(#pbdbefc3088)"
       style="fill:none;stroke:#000000;stroke-width:0.217643;stroke-linecap:round"
       id="path14" />
    <path
       d="M 155.337491,67.84779299999999 153.454604,70.07962 l -0.65573,-2.84540600000001 z"
       clip-path="url(#pbdbefc3088)"
       style="stroke:#000000;stroke-width:0.217643;stroke-linecap:round"
       id="path15" />
  </g>
  <g
     id="patch_9"
     transform="translate(-54.31481950363256,-19.30139850363254)">
    <path
       d="M 178.223773,32.99296300000001 Q 317.31914,57.783384 456.174949,82.531109"
       clip-path="url(#pbdbefc3088)"
       style="fill:none;stroke:#000000;stroke-width:0.217643;stroke-linecap:round"
       id="path16" />
    <path
       d="M 453.832879,80.78725599999998 456.174949,82.531109 l -2.800325,0.82734399999998 z"
       clip-path="url(#pbdbefc3088)"
       style="stroke:#000000;stroke-width:0.217643;stroke-linecap:round"
       id="path17" />
  </g>
  <g
     id="patch_10"
     transform="translate(-54.31481950363256,-19.30139850363254)">
    <path
       d="M 177.391632,35.935181 Q 232.839586,57.78374 288.061149,79.543092"
       clip-path="url(#pbdbefc3088)"
       style="fill:none;stroke:#000000;stroke-width:0.217643;stroke-linecap:round"
       id="path18" />
    <path
       d="M 286.110001,77.37068899999998 288.061149,79.543092 l -2.908612,0.25747699999999 z"
       clip-path="url(#pbdbefc3088)"
       style="stroke:#000000;stroke-width:0.217643;stroke-linecap:round"
       id="path19" />
  </g>
  <g
     id="patch_11"
     transform="translate(-54.31481950363256,-19.30139850363254)">
    <path
       d="M 149.660006,37.834578 Q 114.190199,57.782288 78.93248499999998,77.61072099999998"
       clip-path="url(#pbdbefc3088)"
       style="fill:none;stroke:#000000;stroke-width:0.217643;stroke-linecap:round"
       id="path20" />
    <path
       d="m 81.84901499999999,77.46870499999998 -2.91653000000001,0.142016 L 80.56879,75.192288 Z"
       clip-path="url(#pbdbefc3088)"
       style="stroke:#000000;stroke-width:0.217643;stroke-linecap:round"
       id="path21" />
  </g>
  <g
     id="patch_12"
     transform="translate(-54.31481950363256,-19.30139850363254)">
    <path
       d="M 261.9152,36.438555 Q 212.903169,57.784022 164.11423,79.032329"
       clip-path="url(#pbdbefc3088)"
       style="fill:none;stroke:#000000;stroke-width:0.217643;stroke-linecap:round"
       id="path22" />
    <path
       d="m 167.03013,79.186738 -2.9159,-0.154409 1.873067,-2.24007500000002 z"
       clip-path="url(#pbdbefc3088)"
       style="stroke:#000000;stroke-width:0.217643;stroke-linecap:round"
       id="path23" />
  </g>
  <g
     id="patch_13"
     transform="translate(-54.31481950363256,-19.30139850363254)">
    <path
       d="m 290.841629,34.45778 q 82.953763,23.325098 165.673278,46.584329"
       clip-path="url(#pbdbefc3088)"
       style="fill:none;stroke:#000000;stroke-width:0.217643;stroke-linecap:round"
       id="path24" />
    <path
       d="m 454.354168,79.07805 2.160739,1.96405899999999 -2.86769,0.550155 z"
       clip-path="url(#pbdbefc3088)"
       style="stroke:#000000;stroke-width:0.217643;stroke-linecap:round"
       id="path25" />
  </g>
  <g
     id="patch_14"
     transform="translate(-54.31481950363256,-19.30139850363254)">
    <path
       d="M 282.725709,44.14856000000001 Q 289.317383,57.784726 295.803155,71.201813"
       clip-path="url(#pbdbefc3088)"
       style="fill:none;stroke:#000000;stroke-width:0.217643;stroke-linecap:round"
       id="path26" />
    <path
       d="M 295.842196,68.28208899999998 295.803155,71.201813 293.4908,69.418745 Z"
       clip-path="url(#pbdbefc3088)"
       style="stroke:#000000;stroke-width:0.217643;stroke-linecap:round"
       id="path27" />
  </g>
  <g
     id="patch_15"
     transform="translate(-54.31481950363256,-19.30139850363254)">
    <path
       d="M 261.137337,34.177569 Q 170.666543,57.783321 80.43119799999999,81.32764"
       clip-path="url(#pbdbefc3088)"
       style="fill:none;stroke:#000000;stroke-width:0.217643;stroke-linecap:round"
       id="path28" />
    <path
       d="M 83.28799399999998,81.931818 80.43119799999999,81.32764 82.628618,79.40470999999999 Z"
       clip-path="url(#pbdbefc3088)"
       style="stroke:#000000;stroke-width:0.217643;stroke-linecap:round"
       id="path29" />
  </g>
  <g
     id="patch_16"
     transform="translate(-54.31481950363256,-19.30139850363254)">
    <path
       d="M 137.664919,94.75941799999999 Q 114.665228,112.763391 91.857146,130.617374"
       clip-path="url(#pbdbefc3088)"
       style="fill:none;stroke:#000000;stroke-width:0.217643;stroke-linecap:round"
       id="path30" />
    <path
       d="M 94.718629,130.035797 91.857146,130.617374 l 1.251628,-2.638132 z"
       clip-path="url(#pbdbefc3088)"
       style="stroke:#000000;stroke-width:0.217643;stroke-linecap:round"
       id="path31" />
  </g>
  <g
     id="patch_17"
     transform="translate(-54.31481950363256,-19.30139850363254)">
    <path
       d="m 163.227538,92.762703 q 35.913353,20.002174 71.614121,39.885948"
       clip-path="url(#pbdbefc3088)"
       style="fill:none;stroke:#000000;stroke-width:0.217643;stroke-linecap:round"
       id="path32" />
    <path
       d="m 233.19537,130.237003 1.646289,2.411648 -2.917092,-0.129957 z"
       clip-path="url(#pbdbefc3088)"
       style="stroke:#000000;stroke-width:0.217643;stroke-linecap:round"
       id="path33" />
  </g>
  <g
     id="patch_18"
     transform="translate(-54.31481950363256,-19.30139850363254)">
    <path
       d="M 203.818276,90.950558 Q 148.831994,112.7662 94.071893,134.492105"
       clip-path="url(#pbdbefc3088)"
       style="fill:none;stroke:#000000;stroke-width:0.217643;stroke-linecap:round"
       id="path34" />
    <path
       d="M 96.98109999999998,134.742765 94.071893,134.492105 l 1.94605199999998,-2.17697 z"
       clip-path="url(#pbdbefc3088)"
       style="stroke:#000000;stroke-width:0.217643;stroke-linecap:round"
       id="path35" />
  </g>
  <g
     id="patch_19"
     transform="translate(-54.31481950363256,-19.30139850363254)">
    <path
       d="M 225.56912,98.747815 Q 233.313901,112.766708 240.941014,126.57261"
       clip-path="url(#pbdbefc3088)"
       style="fill:none;stroke:#000000;stroke-width:0.217643;stroke-linecap:round"
       id="path36" />
    <path
       d="m 240.821103,123.655088 0.119911,2.917522 -2.405965,-1.654585 z"
       clip-path="url(#pbdbefc3088)"
       style="stroke:#000000;stroke-width:0.217643;stroke-linecap:round"
       id="path37" />
  </g>
  <g
     id="patch_20"
     transform="translate(-54.31481950363256,-19.30139850363254)">
    <path
       d="m 129.429373,208.308752 q 8.962752,14.420936 17.797056,28.635203"
       clip-path="url(#pbdbefc3088)"
       style="fill:none;stroke:#000000;stroke-width:0.217643;stroke-linecap:round"
       id="path38" />
    <path
       d="m 146.956896,234.036436 0.269533,2.907519 -2.487735,-1.528885 z"
       clip-path="url(#pbdbefc3088)"
       style="stroke:#000000;stroke-width:0.217643;stroke-linecap:round"
       id="path39" />
  </g>
  <g
     id="patch_21"
     transform="translate(-54.31481950363256,-19.30139850363254)">
    <path
       d="m 181.525415,208.308752 q -8.962752,14.420936 -17.797056,28.635203"
       clip-path="url(#pbdbefc3088)"
       style="fill:none;stroke:#000000;stroke-width:0.217643;stroke-linecap:round"
       id="path40" />
    <path
       d="m 166.216094,235.41507 -2.487735,1.528885 0.269533,-2.907519 z"
       clip-path="url(#pbdbefc3088)"
       style="stroke:#000000;stroke-width:0.217643;stroke-linecap:round"
       id="path41" />
  </g>
  <g
     id="patch_22"
     transform="translate(-54.31481950363256,-19.30139850363254)">
    <path
       d="m 154.580031,152.407438 q -11.916343,15.338578 -23.683401,30.484998"
       clip-path="url(#pbdbefc3088)"
       style="fill:none;stroke:#000000;stroke-width:0.217643;stroke-linecap:round"
       id="path42" />
    <path
       d="m 133.530149,181.631129 -2.633519,1.261307 0.571066,-2.863599 z"
       clip-path="url(#pbdbefc3088)"
       style="stroke:#000000;stroke-width:0.217643;stroke-linecap:round"
       id="path43" />
  </g>
  <g
     id="patch_23"
     transform="translate(-54.31481950363256,-19.30139850363254)">
    <path
       d="M 88.850147,152.508113 Q 100.423715,167.745436 111.850102,182.788986"
       clip-path="url(#pbdbefc3088)"
       style="fill:none;stroke:#000000;stroke-width:0.217643;stroke-linecap:round"
       id="path44" />
    <path
       d="m 111.310283,179.919332 0.539819,2.869654 -2.619614,-1.289937 z"
       clip-path="url(#pbdbefc3088)"
       style="stroke:#000000;stroke-width:0.217643;stroke-linecap:round"
       id="path45" />
  </g>
  <g
     id="PathCollection_1"
     transform="translate(-54.31481950363256,-19.30139850363254)">
    <path
       d="m 460.683778,96.156326 h 21.764287 V 74.39203799999998 h -21.764287 z"
       clip-path="url(#pbdbefc3088)"
       style="fill:#1f77b4;fill-opacity:0.5;stroke:#000000;stroke-width:0.217643"
       id="path46" />
    <path
       d="m 265.145529,41.174507 h 21.764288 V 19.41022 h -21.764288 z"
       clip-path="url(#pbdbefc3088)"
       style="fill:#8c564b;fill-opacity:0.5;stroke:#000000;stroke-width:0.217643"
       id="path47" />
    <path
       d="m 291.723544,96.156326 h 21.764287 V 74.39203799999998 h -21.764287 z"
       clip-path="url(#pbdbefc3088)"
       style="fill:#1f77b4;fill-opacity:0.5;stroke:#000000;stroke-width:0.217643"
       id="path48" />
    <path
       d="M 54.42364100000001,96.156326 H 76.18792899999999 V 74.39203799999998 H 54.42364100000001 Z"
       clip-path="url(#pbdbefc3088)"
       style="fill:#1f77b4;fill-opacity:0.5;stroke:#000000;stroke-width:0.217643"
       id="path49" />
    <path
       d="m 144.59525,261.10178 h 21.764288 V 239.337493 H 144.59525 Z"
       clip-path="url(#pbdbefc3088)"
       style="fill:#bcbd22;fill-opacity:0.5;stroke:#000000;stroke-width:0.217643"
       id="path50" />
  </g>
  <g
     id="PathCollection_2"
     transform="translate(-54.31481950363256,-19.30139850363254)">
    <defs
       id="defs50">
      <path
         id="C0_0_4e0c93a863"
         d="m 0,10.882144 c 2.885978,0 5.654143000000003,-1.146612000000001 7.694838,-3.187305999999999 C 9.735531999999999,5.654143000000003 10.882144,2.885978 10.882144,0 c 0,-2.885978 -1.146612000000001,-5.654143000000003 -3.187305999999999,-7.694838 C 5.654143000000003,-9.735531999999999 2.885978,-10.882144 0,-10.882144 c -2.885978,0 -5.654143000000003,1.146612000000001 -7.694838,3.187305999999999 -2.040693999999999,2.040694999999999 -3.187306,4.80886 -3.187306,7.694838000000001 0,2.885977999999999 1.146612000000001,5.654143000000003 3.187305999999999,7.694837999999999 C -5.654143000000003,9.735531999999997 -2.885978000000001,10.882144 0,10.882144 Z" />
    </defs>
    <g
       clip-path="url(#pbdbefc3088)"
       id="g50">
      <use
         xlink:href="#C0_0_4e0c93a863"
         x="618.6942138671875"
         y="30.2923641204834"
         style="fill:#f7b6d2;fill-opacity:0.5;stroke:#000000;stroke-width:0.217643"
         id="use50" />
    </g>
    <g
       clip-path="url(#pbdbefc3088)"
       id="g51">
      <use
         xlink:href="#C0_0_4e0c93a863"
         x="163.0711059570312"
         y="30.2923641204834"
         style="fill:#1f77b4;fill-opacity:0.5;stroke:#000000;stroke-width:0.217643"
         id="use51" />
    </g>
    <g
       clip-path="url(#pbdbefc3088)"
       id="g52">
      <use
         xlink:href="#C0_0_4e0c93a863"
         x="79.54400634765625"
         y="140.2559967041016"
         style="fill:#ffbb78;fill-opacity:0.5;stroke:#000000;stroke-width:0.217643"
         id="use52" />
    </g>
    <g
       clip-path="url(#pbdbefc3088)"
       id="g53">
      <use
         xlink:href="#C0_0_4e0c93a863"
         x="479.1596374511719"
         y="140.2559967041016"
         style="fill:#d62728;fill-opacity:0.5;stroke:#000000;stroke-width:0.217643"
         id="use53" />
    </g>
    <g
       clip-path="url(#pbdbefc3088)"
       id="g54">
      <use
         xlink:href="#C0_0_4e0c93a863"
         x="379.4920959472656"
         y="140.2559967041016"
         style="fill:#d62728;fill-opacity:0.5;stroke:#000000;stroke-width:0.217643"
         id="use54" />
    </g>
    <g
       clip-path="url(#pbdbefc3088)"
       id="g55">
      <use
         xlink:href="#C0_0_4e0c93a863"
         x="576.9287719726562"
         y="85.27418518066406"
         style="fill:#f7b6d2;fill-opacity:0.5;stroke:#000000;stroke-width:0.217643"
         id="use55" />
    </g>
    <g
       clip-path="url(#pbdbefc3088)"
       id="g56">
      <use
         xlink:href="#C0_0_4e0c93a863"
         x="248.5004425048828"
         y="140.2559967041016"
         style="fill:#ffbb78;fill-opacity:0.5;stroke:#000000;stroke-width:0.217643"
         id="use56" />
    </g>
  </g>
  <g
     id="PathCollection_3"
     transform="translate(-54.31481950363256,-19.30139850363254)">
    <path
       d="m 523.3319539999996,41.174507 h 21.7642880000001 V 19.41022 h -21.7642880000001 z"
       clip-path="url(#pbdbefc3088)"
       style="fill:#e5e5e5;fill-opacity:0.5;stroke:#000000;stroke-width:0.217643"
       id="path56" />
    <path
       d="m 138.899961,96.156326 h 21.764288 V 74.39203799999998 h -21.764288 z"
       clip-path="url(#pbdbefc3088)"
       style="fill:#e5e5e5;fill-opacity:0.5;stroke:#000000;stroke-width:0.217643"
       id="path57" />
    <path
       d="m 110.423518,206.119962 h 21.764287 v -21.764288 h -21.764287 z"
       clip-path="url(#pbdbefc3088)"
       style="fill:#e5e5e5;fill-opacity:0.5;stroke:#000000;stroke-width:0.217643"
       id="path58" />
    <path
       d="m 153.138183,151.138144 h 21.764288 v -21.764288 h -21.764288 z"
       clip-path="url(#pbdbefc3088)"
       style="fill:#e5e5e5;fill-opacity:0.5;stroke:#000000;stroke-width:0.217643"
       id="path59" />
  </g>
  <g
     id="PathCollection_4"
     transform="translate(-54.31481950363256,-19.30139850363254)">
    <defs
       id="defs59">
      <path
         id="C1_0_4f3d9db95f"
         d="m 0,10.882144 c 2.885978,0 5.654143000000003,-1.146612000000001 7.694838,-3.187305999999999 C 9.735531999999999,5.654143000000003 10.882144,2.885978 10.882144,0 c 0,-2.885978 -1.146612000000001,-5.654143000000003 -3.187305999999999,-7.694838 C 5.654143000000003,-9.735531999999999 2.885978,-10.882144 0,-10.882144 c -2.885978,0 -5.654143000000003,1.146612000000001 -7.694838,3.187305999999999 -2.040693999999999,2.040694999999999 -3.187306,4.80886 -3.187306,7.694838000000001 0,2.885977999999999 1.146612000000001,5.654143000000003 3.187305999999999,7.694837999999999 C -5.654143000000003,9.735531999999997 -2.885978000000001,10.882144 0,10.882144 Z" />
    </defs>
    <g
       clip-path="url(#pbdbefc3088)"
       id="g59">
      <use
         xlink:href="#C1_0_4f3d9db95f"
         x="387.0858154296875"
         y="85.27418518066406"
         style="fill:#e5e5e5;fill-opacity:0.5;stroke:#000000;stroke-width:0.217643"
         id="use59" />
    </g>
    <g
       clip-path="url(#pbdbefc3088)"
       id="g60">
      <use
         xlink:href="#C1_0_4f3d9db95f"
         x="218.1255645751953"
         y="85.27418518066406"
         style="fill:#e5e5e5;fill-opacity:0.5;stroke:#000000;stroke-width:0.217643"
         id="use60" />
    </g>
    <g
       clip-path="url(#pbdbefc3088)"
       id="g61">
      <use
         xlink:href="#C1_0_4f3d9db95f"
         x="189.6491241455078"
         y="195.2378234863281"
         style="fill:#e5e5e5;fill-opacity:0.5;stroke:#000000;stroke-width:0.217643"
         id="use61" />
    </g>
  </g>
  <g
     id="text_1"
     transform="translate(-54.31481950363256,-19.30139850363254)">
    <g
       clip-path="url(#pbdbefc3088)"
       id="g68">
      <!-- GLN300 -->
      <g
         transform="matrix(0.05121,0,0,-0.05121,461.352309,86.68725999999999)"
         id="g67">
        <defs
           id="defs61">
          <path
             id="DejaVuSans-47"
             d="M 3809,666 V 1919 H 2778 v 519 H 4434 V 434 Q 4069,175 3628,42 3188,-91 2688,-91 1594,-91 976,548 359,1188 359,2328 q 0,1144 617,1783 618,639 1712,639 456,0 867,-113 411,-112 758,-331 v -672 q -350,297 -744,447 -394,150 -828,150 -857,0 -1287,-478 -429,-478 -429,-1425 0,-944 429,-1422 430,-478 1287,-478 334,0 596,58 263,58 472,180 z"
             transform="scale(0.015625)" />
          <path
             id="DejaVuSans-4c"
             d="m 628,4666 h 631 V 531 H 3531 V 0 H 628 Z"
             transform="scale(0.015625)" />
          <path
             id="DejaVuSans-4e"
             d="m 628,4666 h 850 L 3547,763 v 3903 h 612 V 0 H 3309 L 1241,3903 V 0 H 628 Z"
             transform="scale(0.015625)" />
          <path
             id="DejaVuSans-33"
             d="m 2597,2516 q 453,-97 707,-404 255,-306 255,-756 0,-690 -475,-1069 -475,-378 -1350,-378 -293,0 -604,58 -311,58 -642,174 v 609 q 262,-153 574,-231 313,-78 654,-78 593,0 904,234 311,234 311,681 0,413 -289,645 -289,233 -804,233 h -544 v 519 h 569 q 465,0 712,186 247,186 247,536 0,359 -255,551 -254,193 -729,193 -260,0 -557,-57 -297,-56 -653,-174 v 562 q 360,100 674,150 314,50 592,50 719,0 1137,-327 419,-326 419,-882 0,-388 -222,-655 -222,-267 -631,-370 z"
             transform="scale(0.015625)" />
          <path
             id="DejaVuSans-30"
             d="m 2034,4250 q -487,0 -733,-480 -245,-479 -245,-1442 0,-959 245,-1439 246,-480 733,-480 491,0 736,480 246,480 246,1439 0,963 -246,1442 -245,480 -736,480 z m 0,500 q 785,0 1199,-621 414,-620 414,-1801 0,-1178 -414,-1799 -414,-620 -1199,-620 -784,0 -1198,620 -414,621 -414,1799 0,1181 414,1801 414,621 1198,621 z"
             transform="scale(0.015625)" />
        </defs>
        <use
           xlink:href="#DejaVuSans-47"
           id="use62" />
        <use
           xlink:href="#DejaVuSans-4c"
           transform="translate(77.490234)"
           id="use63" />
        <use
           xlink:href="#DejaVuSans-4e"
           transform="translate(133.203125)"
           id="use64" />
        <use
           xlink:href="#DejaVuSans-33"
           transform="translate(208.007812)"
           id="use65" />
        <use
           xlink:href="#DejaVuSans-30"
           transform="translate(271.630859)"
           id="use66" />
        <use
           xlink:href="#DejaVuSans-30"
           transform="translate(335.253906)"
           id="use67" />
      </g>
    </g>
  </g>
  <g
     id="text_2"
     transform="translate(-54.31481950363256,-19.30139850363254)">
    <g
       clip-path="url(#pbdbefc3088)"
       id="g74">
      <!-- GLN288 -->
      <g
         transform="matrix(0.05121,0,0,-0.05121,608.4806029999997,31.705442)"
         id="g73">
        <defs
           id="defs68">
          <path
             id="DejaVuSans-32"
             d="M 1228,531 H 3431 V 0 H 469 v 531 q 359,372 979,998 621,627 780,809 303,340 423,576 121,236 121,464 0,372 -261,606 -261,235 -680,235 -297,0 -627,-103 -329,-103 -704,-313 v 638 q 381,153 712,231 332,78 607,78 725,0 1156,-363 431,-362 431,-968 0,-288 -108,-546 -107,-257 -392,-607 -78,-91 -497,-524 Q 1991,1309 1228,531 Z"
             transform="scale(0.015625)" />
          <path
             id="DejaVuSans-38"
             d="m 2034,2216 q -450,0 -708,-241 -257,-241 -257,-662 0,-422 257,-663 258,-241 708,-241 450,0 709,242 260,243 260,662 0,421 -258,662 -257,241 -711,241 z m -631,268 q -406,100 -633,378 -226,279 -226,679 0,559 398,884 399,325 1092,325 697,0 1094,-325 397,-325 397,-884 0,-400 -227,-679 -226,-278 -629,-378 456,-106 710,-416 255,-309 255,-755 Q 3634,634 3220,271 2806,-91 2034,-91 1263,-91 848,271 434,634 434,1313 q 0,446 256,755 257,310 713,416 z m -231,997 q 0,-362 226,-565 227,-203 636,-203 407,0 636,203 230,203 230,565 0,363 -230,566 -229,203 -636,203 -409,0 -636,-203 -226,-203 -226,-566 z"
             transform="scale(0.015625)" />
        </defs>
        <use
           xlink:href="#DejaVuSans-47"
           id="use68" />
        <use
           xlink:href="#DejaVuSans-4c"
           transform="translate(77.490234)"
           id="use69" />
        <use
           xlink:href="#DejaVuSans-4e"
           transform="translate(133.203125)"
           id="use70" />
        <use
           xlink:href="#DejaVuSans-32"
           transform="translate(208.007812)"
           id="use71" />
        <use
           xlink:href="#DejaVuSans-38"
           transform="translate(271.630859)"
           id="use72" />
        <use
           xlink:href="#DejaVuSans-38"
           transform="translate(335.253906)"
           id="use73" />
      </g>
    </g>
  </g>
  <g
     id="text_3"
     transform="translate(-54.31481950363256,-19.30139850363254)">
    <g
       clip-path="url(#pbdbefc3088)"
       id="g80">
      <!-- GLN298 -->
      <g
         transform="matrix(0.05121,0,0,-0.05121,152.8575,31.705442)"
         id="g79">
        <defs
           id="defs74">
          <path
             id="DejaVuSans-39"
             d="m 703,97 v 575 q 238,-113 481,-172 244,-59 479,-59 625,0 954,420 330,420 377,1277 -181,-269 -460,-413 -278,-144 -615,-144 -700,0 -1108,423 -408,424 -408,1159 0,718 425,1152 425,435 1131,435 810,0 1236,-621 427,-620 427,-1801 Q 3622,1225 3098,567 2575,-91 1691,-91 1453,-91 1209,-44 966,3 703,97 Z m 1256,1978 q 425,0 673,290 249,291 249,798 0,503 -249,795 -248,292 -673,292 -425,0 -673,-292 -248,-292 -248,-795 0,-507 248,-798 248,-290 673,-290 z"
             transform="scale(0.015625)" />
        </defs>
        <use
           xlink:href="#DejaVuSans-47"
           id="use74" />
        <use
           xlink:href="#DejaVuSans-4c"
           transform="translate(77.490234)"
           id="use75" />
        <use
           xlink:href="#DejaVuSans-4e"
           transform="translate(133.203125)"
           id="use76" />
        <use
           xlink:href="#DejaVuSans-32"
           transform="translate(208.007812)"
           id="use77" />
        <use
           xlink:href="#DejaVuSans-39"
           transform="translate(271.630859)"
           id="use78" />
        <use
           xlink:href="#DejaVuSans-38"
           transform="translate(335.253906)"
           id="use79" />
      </g>
    </g>
  </g>
  <g
     id="text_4"
     transform="translate(-54.31481950363256,-19.30139850363254)">
    <g
       clip-path="url(#pbdbefc3088)"
       id="g86">
      <!-- GLN305 -->
      <g
         transform="matrix(0.05121,0,0,-0.05121,265.814061,31.705442)"
         id="g85">
        <defs
           id="defs80">
          <path
             id="DejaVuSans-35"
             d="M 691,4666 H 3169 V 4134 H 1269 V 2991 q 137,47 274,70 138,23 276,23 781,0 1237,-428 457,-428 457,-1159 Q 3513,744 3044,326 2575,-91 1722,-91 1428,-91 1123,-41 819,9 494,109 v 635 q 281,-153 581,-228 300,-75 634,-75 541,0 856,284 316,284 316,772 0,487 -316,771 -315,285 -856,285 -253,0 -505,-56 -251,-56 -513,-175 z"
             transform="scale(0.015625)" />
        </defs>
        <use
           xlink:href="#DejaVuSans-47"
           id="use80" />
        <use
           xlink:href="#DejaVuSans-4c"
           transform="translate(77.490234)"
           id="use81" />
        <use
           xlink:href="#DejaVuSans-4e"
           transform="translate(133.203125)"
           id="use82" />
        <use
           xlink:href="#DejaVuSans-33"
           transform="translate(208.007812)"
           id="use83" />
        <use
           xlink:href="#DejaVuSans-30"
           transform="translate(271.630859)"
           id="use84" />
        <use
           xlink:href="#DejaVuSans-35"
           transform="translate(335.253906)"
           id="use85" />
      </g>
    </g>
  </g>
  <g
     id="text_5"
     transform="translate(-54.31481950363256,-19.30139850363254)">
    <g
       clip-path="url(#pbdbefc3088)"
       id="g92">
      <!-- GLN301 -->
      <g
         transform="matrix(0.05121,0,0,-0.05121,69.33039499999999,141.669078)"
         id="g91">
        <defs
           id="defs86">
          <path
             id="DejaVuSans-31"
             d="M 794,531 H 1825 V 4091 L 703,3866 v 575 l 1116,225 h 631 V 531 H 3481 V 0 H 794 Z"
             transform="scale(0.015625)" />
        </defs>
        <use
           xlink:href="#DejaVuSans-47"
           id="use86" />
        <use
           xlink:href="#DejaVuSans-4c"
           transform="translate(77.490234)"
           id="use87" />
        <use
           xlink:href="#DejaVuSans-4e"
           transform="translate(133.203125)"
           id="use88" />
        <use
           xlink:href="#DejaVuSans-33"
           transform="translate(208.007812)"
           id="use89" />
        <use
           xlink:href="#DejaVuSans-30"
           transform="translate(271.630859)"
           id="use90" />
        <use
           xlink:href="#DejaVuSans-31"
           transform="translate(335.253906)"
           id="use91" />
      </g>
    </g>
  </g>
  <g
     id="text_6"
     transform="translate(-54.31481950363256,-19.30139850363254)">
    <g
       clip-path="url(#pbdbefc3088)"
       id="g98">
      <!-- GLN307 -->
      <g
         transform="matrix(0.05121,0,0,-0.05121,468.946028,141.669078)"
         id="g97">
        <defs
           id="defs92">
          <path
             id="DejaVuSans-37"
             d="M 525,4666 H 3525 V 4397 L 1831,0 H 1172 L 2766,4134 H 525 Z"
             transform="scale(0.015625)" />
        </defs>
        <use
           xlink:href="#DejaVuSans-47"
           id="use92" />
        <use
           xlink:href="#DejaVuSans-4c"
           transform="translate(77.490234)"
           id="use93" />
        <use
           xlink:href="#DejaVuSans-4e"
           transform="translate(133.203125)"
           id="use94" />
        <use
           xlink:href="#DejaVuSans-33"
           transform="translate(208.007812)"
           id="use95" />
        <use
           xlink:href="#DejaVuSans-30"
           transform="translate(271.630859)"
           id="use96" />
        <use
           xlink:href="#DejaVuSans-37"
           transform="translate(335.253906)"
           id="use97" />
      </g>
    </g>
  </g>
  <g
     id="text_7"
     transform="translate(-54.31481950363256,-19.30139850363254)">
    <g
       clip-path="url(#pbdbefc3088)"
       id="g104">
      <!-- GLN277 -->
      <g
         transform="matrix(0.05121,0,0,-0.05121,369.278474,141.669078)"
         id="g103">
        <use
           xlink:href="#DejaVuSans-47"
           id="use98" />
        <use
           xlink:href="#DejaVuSans-4c"
           transform="translate(77.490234)"
           id="use99" />
        <use
           xlink:href="#DejaVuSans-4e"
           transform="translate(133.203125)"
           id="use100" />
        <use
           xlink:href="#DejaVuSans-32"
           transform="translate(208.007812)"
           id="use101" />
        <use
           xlink:href="#DejaVuSans-37"
           transform="translate(271.630859)"
           id="use102" />
        <use
           xlink:href="#DejaVuSans-37"
           transform="translate(335.253906)"
           id="use103" />
      </g>
    </g>
  </g>
  <g
     id="text_8"
     transform="translate(-54.31481950363256,-19.30139850363254)">
    <g
       clip-path="url(#pbdbefc3088)"
       id="g111">
      <!-- GLN289B -->
      <g
         transform="matrix(0.05121,0,0,-0.05121,564.9584059999998,86.68725999999999)"
         id="g110">
        <defs
           id="defs104">
          <path
             id="DejaVuSans-42"
             d="M 1259,2228 V 519 h 1013 q 509,0 754,211 246,211 246,645 0,438 -246,645 -245,208 -754,208 z m 0,1919 V 2741 h 935 q 462,0 688,173 227,174 227,530 0,353 -227,528 -226,175 -688,175 z m -631,519 h 1613 q 722,0 1112,-300 391,-300 391,-853 0,-429 -200,-682 -200,-253 -588,-315 466,-100 724,-418 258,-317 258,-792 0,-625 -425,-966 Q 3088,0 2303,0 H 628 Z"
             transform="scale(0.015625)" />
        </defs>
        <use
           xlink:href="#DejaVuSans-47"
           id="use104" />
        <use
           xlink:href="#DejaVuSans-4c"
           transform="translate(77.490234)"
           id="use105" />
        <use
           xlink:href="#DejaVuSans-4e"
           transform="translate(133.203125)"
           id="use106" />
        <use
           xlink:href="#DejaVuSans-32"
           transform="translate(208.007812)"
           id="use107" />
        <use
           xlink:href="#DejaVuSans-38"
           transform="translate(271.630859)"
           id="use108" />
        <use
           xlink:href="#DejaVuSans-39"
           transform="translate(335.253906)"
           id="use109" />
        <use
           xlink:href="#DejaVuSans-42"
           transform="translate(398.876953)"
           id="use110" />
      </g>
    </g>
  </g>
  <g
     id="text_9"
     transform="translate(-54.31481950363256,-19.30139850363254)">
    <g
       clip-path="url(#pbdbefc3088)"
       id="g117">
      <!-- GLN291 -->
      <g
         transform="matrix(0.05121,0,0,-0.05121,292.392075,86.68725999999999)"
         id="g116">
        <use
           xlink:href="#DejaVuSans-47"
           id="use111" />
        <use
           xlink:href="#DejaVuSans-4c"
           transform="translate(77.490234)"
           id="use112" />
        <use
           xlink:href="#DejaVuSans-4e"
           transform="translate(133.203125)"
           id="use113" />
        <use
           xlink:href="#DejaVuSans-32"
           transform="translate(208.007812)"
           id="use114" />
        <use
           xlink:href="#DejaVuSans-39"
           transform="translate(271.630859)"
           id="use115" />
        <use
           xlink:href="#DejaVuSans-31"
           transform="translate(335.253906)"
           id="use116" />
      </g>
    </g>
  </g>
  <g
     id="text_10"
     transform="translate(-54.31481950363256,-19.30139850363254)">
    <g
       clip-path="url(#pbdbefc3088)"
       id="g123">
      <!-- GLN280 -->
      <g
         transform="matrix(0.05121,0,0,-0.05121,55.092173,86.68725999999999)"
         id="g122">
        <use
           xlink:href="#DejaVuSans-47"
           id="use117" />
        <use
           xlink:href="#DejaVuSans-4c"
           transform="translate(77.490234)"
           id="use118" />
        <use
           xlink:href="#DejaVuSans-4e"
           transform="translate(133.203125)"
           id="use119" />
        <use
           xlink:href="#DejaVuSans-32"
           transform="translate(208.007812)"
           id="use120" />
        <use
           xlink:href="#DejaVuSans-38"
           transform="translate(271.630859)"
           id="use121" />
        <use
           xlink:href="#DejaVuSans-30"
           transform="translate(335.253906)"
           id="use122" />
      </g>
    </g>
  </g>
  <g
     id="text_11"
     transform="translate(-54.31481950363256,-19.30139850363254)">
    <g
       clip-path="url(#pbdbefc3088)"
       id="g129">
      <!-- GLN306 -->
      <g
         transform="matrix(0.05121,0,0,-0.05121,238.286832,141.669078)"
         id="g128">
        <defs
           id="defs123">
          <path
             id="DejaVuSans-36"
             d="m 2113,2584 q -425,0 -674,-291 -248,-290 -248,-796 0,-503 248,-796 249,-292 674,-292 425,0 673,292 248,293 248,796 0,506 -248,796 -248,291 -673,291 z m 1253,1979 v -575 q -238,112 -480,171 -242,60 -480,60 -625,0 -955,-422 -329,-422 -376,-1275 184,272 462,417 279,145 613,145 703,0 1111,-427 408,-426 408,-1160 0,-719 -425,-1154 -425,-434 -1131,-434 -810,0 -1238,620 -428,621 -428,1799 0,1106 525,1764 525,658 1409,658 238,0 480,-47 242,-47 505,-140 z"
             transform="scale(0.015625)" />
        </defs>
        <use
           xlink:href="#DejaVuSans-47"
           id="use123" />
        <use
           xlink:href="#DejaVuSans-4c"
           transform="translate(77.490234)"
           id="use124" />
        <use
           xlink:href="#DejaVuSans-4e"
           transform="translate(133.203125)"
           id="use125" />
        <use
           xlink:href="#DejaVuSans-33"
           transform="translate(208.007812)"
           id="use126" />
        <use
           xlink:href="#DejaVuSans-30"
           transform="translate(271.630859)"
           id="use127" />
        <use
           xlink:href="#DejaVuSans-36"
           transform="translate(335.253906)"
           id="use128" />
      </g>
    </g>
  </g>
  <g
     id="text_12"
     transform="translate(-54.31481950363256,-19.30139850363254)">
    <g
       clip-path="url(#pbdbefc3088)"
       id="g135">
      <!-- GLN309 -->
      <g
         transform="matrix(0.05121,0,0,-0.05121,145.263782,251.632715)"
         id="g134">
        <use
           xlink:href="#DejaVuSans-47"
           id="use129" />
        <use
           xlink:href="#DejaVuSans-4c"
           transform="translate(77.490234)"
           id="use130" />
        <use
           xlink:href="#DejaVuSans-4e"
           transform="translate(133.203125)"
           id="use131" />
        <use
           xlink:href="#DejaVuSans-33"
           transform="translate(208.007812)"
           id="use132" />
        <use
           xlink:href="#DejaVuSans-30"
           transform="translate(271.630859)"
           id="use133" />
        <use
           xlink:href="#DejaVuSans-39"
           transform="translate(335.253906)"
           id="use134" />
      </g>
    </g>
  </g>
  <defs
     id="defs135">
    <clipPath
       id="pbdbefc3088">
      <rect
         x="7.199999809265137"
         y="7.199999809265137"
         width="669.5999755859375"
         height="266.1119995117188"
         id="rect135" />
    </clipPath>
  </defs>
</svg>
