<?xml version="1.0" encoding="utf-8" standalone="no"?>
<!DOCTYPE svg PUBLIC "-//W3C//DTD SVG 1.1//EN"
  "http://www.w3.org/Graphics/SVG/1.1/DTD/svg11.dtd">
<svg xmlns:xlink="http://www.w3.org/1999/xlink" width="684pt" height="280.512pt" viewBox="0 0 684 280.512" xmlns="http://www.w3.org/2000/svg" version="1.1">
 <metadata>
  <rdf:RDF xmlns:dc="http://purl.org/dc/elements/1.1/" xmlns:cc="http://creativecommons.org/ns#" xmlns:rdf="http://www.w3.org/1999/02/22-rdf-syntax-ns#">
   <cc:Work>
    <dc:type rdf:resource="http://purl.org/dc/dcmitype/StillImage"/>
    <dc:date>2025-12-13T13:37:49.130816</dc:date>
    <dc:format>image/svg+xml</dc:format>
    <dc:creator>
     <cc:Agent>
      <dc:title>Matplotlib v3.10.8, https://matplotlib.org/</dc:title>
     </cc:Agent>
    </dc:creator>
   </cc:Work>
  </rdf:RDF>
 </metadata>
 <defs>
  <style type="text/css">*{stroke-linejoin: round; stroke-linecap: butt}</style>
 </defs>
 <g id="figure_1">
  <g id="patch_1">
   <path d="M 0 280.512 
L 684 280.512 
L 684 0 
L 0 0 
z
" style="fill: #ffffff"/>
  </g>
  <g id="axes_1">
   <g id="patch_2">
    <path d="M 473.671528 100.51969 
Q 475.36278 112.765089 477.020741 124.769445 
" clip-path="url(#pbdbefc3088)" style="fill: none; stroke: #000000; stroke-width: 0.217643; stroke-linecap: round"/>
    <path d="M 477.956998 122.003629 
L 477.020741 124.769445 
L 475.369843 122.36095 
z
" clip-path="url(#pbdbefc3088)" style="stroke: #000000; stroke-width: 0.217643; stroke-linecap: round"/>
   </g>
   <g id="patch_3">
    <path d="M 458.351101 93.165402 
Q 425.528876 112.765167 392.915568 132.240178 
" clip-path="url(#pbdbefc3088)" style="fill: none; stroke: #000000; stroke-width: 0.217643; stroke-linecap: round"/>
    <path d="M 395.827417 132.022336 
L 392.915568 132.240178 
L 394.488404 129.779994 
z
" clip-path="url(#pbdbefc3088)" style="stroke: #000000; stroke-width: 0.217643; stroke-linecap: round"/>
   </g>
   <g id="patch_4">
    <path d="M 400.300625 93.165402 
Q 433.12285 112.765167 465.736157 132.240178 
" clip-path="url(#pbdbefc3088)" style="fill: none; stroke: #000000; stroke-width: 0.217643; stroke-linecap: round"/>
    <path d="M 464.163322 129.779994 
L 465.736157 132.240178 
L 462.824309 132.022336 
z
" clip-path="url(#pbdbefc3088)" style="stroke: #000000; stroke-width: 0.217643; stroke-linecap: round"/>
   </g>
   <g id="patch_5">
    <path d="M 384.980198 100.51969 
Q 383.288945 112.765089 381.630985 124.769445 
" clip-path="url(#pbdbefc3088)" style="fill: none; stroke: #000000; stroke-width: 0.217643; stroke-linecap: round"/>
    <path d="M 383.281883 122.36095 
L 381.630985 124.769445 
L 380.694727 122.003629 
z
" clip-path="url(#pbdbefc3088)" style="stroke: #000000; stroke-width: 0.217643; stroke-linecap: round"/>
   </g>
   <g id="patch_6">
    <path d="M 543.654394 42.443802 
Q 555.570737 57.782379 567.337795 72.928799 
" clip-path="url(#pbdbefc3088)" style="fill: none; stroke: #000000; stroke-width: 0.217643; stroke-linecap: round"/>
    <path d="M 566.766729 70.0652 
L 567.337795 72.928799 
L 564.704276 71.667493 
z
" clip-path="url(#pbdbefc3088)" style="stroke: #000000; stroke-width: 0.217643; stroke-linecap: round"/>
   </g>
   <g id="patch_7">
    <path d="M 609.387229 42.544477 
Q 597.812608 57.7818 586.385178 72.825356 
" clip-path="url(#pbdbefc3088)" style="fill: none; stroke: #000000; stroke-width: 0.217643; stroke-linecap: round"/>
    <path d="M 589.004848 71.535534 
L 586.385178 72.825356 
L 586.925122 69.955726 
z
" clip-path="url(#pbdbefc3088)" style="stroke: #000000; stroke-width: 0.217643; stroke-linecap: round"/>
   </g>
   <g id="patch_8">
    <path d="M 159.456055 45.249271 
Q 156.426746 57.782706 153.454604 70.07962 
" clip-path="url(#pbdbefc3088)" style="fill: none; stroke: #000000; stroke-width: 0.217643; stroke-linecap: round"/>
    <path d="M 155.337491 67.847793 
L 153.454604 70.07962 
L 152.798874 67.234214 
z
" clip-path="url(#pbdbefc3088)" style="stroke: #000000; stroke-width: 0.217643; stroke-linecap: round"/>
   </g>
   <g id="patch_9">
    <path d="M 178.223773 32.992963 
Q 317.31914 57.783384 456.174949 82.531109 
" clip-path="url(#pbdbefc3088)" style="fill: none; stroke: #000000; stroke-width: 0.217643; stroke-linecap: round"/>
    <path d="M 453.832879 80.787256 
L 456.174949 82.531109 
L 453.374624 83.358453 
z
" clip-path="url(#pbdbefc3088)" style="stroke: #000000; stroke-width: 0.217643; stroke-linecap: round"/>
   </g>
   <g id="patch_10">
    <path d="M 177.391632 35.935181 
Q 232.839586 57.78374 288.061149 79.543092 
" clip-path="url(#pbdbefc3088)" style="fill: none; stroke: #000000; stroke-width: 0.217643; stroke-linecap: round"/>
    <path d="M 286.110001 77.370689 
L 288.061149 79.543092 
L 285.152537 79.800569 
z
" clip-path="url(#pbdbefc3088)" style="stroke: #000000; stroke-width: 0.217643; stroke-linecap: round"/>
   </g>
   <g id="patch_11">
    <path d="M 149.660006 37.834578 
Q 114.190199 57.782288 78.932485 77.610721 
" clip-path="url(#pbdbefc3088)" style="fill: none; stroke: #000000; stroke-width: 0.217643; stroke-linecap: round"/>
    <path d="M 81.849015 77.468705 
L 78.932485 77.610721 
L 80.56879 75.192288 
z
" clip-path="url(#pbdbefc3088)" style="stroke: #000000; stroke-width: 0.217643; stroke-linecap: round"/>
   </g>
   <g id="patch_12">
    <path d="M 261.9152 36.438555 
Q 212.903169 57.784022 164.11423 79.032329 
" clip-path="url(#pbdbefc3088)" style="fill: none; stroke: #000000; stroke-width: 0.217643; stroke-linecap: round"/>
    <path d="M 167.03013 79.186738 
L 164.11423 79.032329 
L 165.987297 76.792254 
z
" clip-path="url(#pbdbefc3088)" style="stroke: #000000; stroke-width: 0.217643; stroke-linecap: round"/>
   </g>
   <g id="patch_13">
    <path d="M 290.841629 34.45778 
Q 373.795392 57.782878 456.514907 81.042109 
" clip-path="url(#pbdbefc3088)" style="fill: none; stroke: #000000; stroke-width: 0.217643; stroke-linecap: round"/>
    <path d="M 454.354168 79.07805 
L 456.514907 81.042109 
L 453.647217 81.592264 
z
" clip-path="url(#pbdbefc3088)" style="stroke: #000000; stroke-width: 0.217643; stroke-linecap: round"/>
   </g>
   <g id="patch_14">
    <path d="M 282.725709 44.14856 
Q 289.317383 57.784726 295.803155 71.201813 
" clip-path="url(#pbdbefc3088)" style="fill: none; stroke: #000000; stroke-width: 0.217643; stroke-linecap: round"/>
    <path d="M 295.842196 68.282089 
L 295.803155 71.201813 
L 293.4908 69.418745 
z
" clip-path="url(#pbdbefc3088)" style="stroke: #000000; stroke-width: 0.217643; stroke-linecap: round"/>
   </g>
   <g id="patch_15">
    <path d="M 261.137337 34.177569 
Q 170.666543 57.783321 80.431198 81.32764 
" clip-path="url(#pbdbefc3088)" style="fill: none; stroke: #000000; stroke-width: 0.217643; stroke-linecap: round"/>
    <path d="M 83.287994 81.931818 
L 80.431198 81.32764 
L 82.628618 79.40471 
z
" clip-path="url(#pbdbefc3088)" style="stroke: #000000; stroke-width: 0.217643; stroke-linecap: round"/>
   </g>
   <g id="patch_16">
    <path d="M 137.664919 94.759418 
Q 114.665228 112.763391 91.857146 130.617374 
" clip-path="url(#pbdbefc3088)" style="fill: none; stroke: #000000; stroke-width: 0.217643; stroke-linecap: round"/>
    <path d="M 94.718629 130.035797 
L 91.857146 130.617374 
L 93.108774 127.979242 
z
" clip-path="url(#pbdbefc3088)" style="stroke: #000000; stroke-width: 0.217643; stroke-linecap: round"/>
   </g>
   <g id="patch_17">
    <path d="M 163.227538 92.762703 
Q 199.140891 112.764877 234.841659 132.648651 
" clip-path="url(#pbdbefc3088)" style="fill: none; stroke: #000000; stroke-width: 0.217643; stroke-linecap: round"/>
    <path d="M 233.19537 130.237003 
L 234.841659 132.648651 
L 231.924567 132.518694 
z
" clip-path="url(#pbdbefc3088)" style="stroke: #000000; stroke-width: 0.217643; stroke-linecap: round"/>
   </g>
   <g id="patch_18">
    <path d="M 203.818276 90.950558 
Q 148.831994 112.7662 94.071893 134.492105 
" clip-path="url(#pbdbefc3088)" style="fill: none; stroke: #000000; stroke-width: 0.217643; stroke-linecap: round"/>
    <path d="M 96.9811 134.742765 
L 94.071893 134.492105 
L 96.017945 132.315135 
z
" clip-path="url(#pbdbefc3088)" style="stroke: #000000; stroke-width: 0.217643; stroke-linecap: round"/>
   </g>
   <g id="patch_19">
    <path d="M 225.56912 98.747815 
Q 233.313901 112.766708 240.941014 126.57261 
" clip-path="url(#pbdbefc3088)" style="fill: none; stroke: #000000; stroke-width: 0.217643; stroke-linecap: round"/>
    <path d="M 240.821103 123.655088 
L 240.941014 126.57261 
L 238.535049 124.918025 
z
" clip-path="url(#pbdbefc3088)" style="stroke: #000000; stroke-width: 0.217643; stroke-linecap: round"/>
   </g>
   <g id="patch_20">
    <path d="M 129.429373 208.308752 
Q 138.392125 222.729688 147.226429 236.943955 
" clip-path="url(#pbdbefc3088)" style="fill: none; stroke: #000000; stroke-width: 0.217643; stroke-linecap: round"/>
    <path d="M 146.956896 234.036436 
L 147.226429 236.943955 
L 144.738694 235.41507 
z
" clip-path="url(#pbdbefc3088)" style="stroke: #000000; stroke-width: 0.217643; stroke-linecap: round"/>
   </g>
   <g id="patch_21">
    <path d="M 181.525415 208.308752 
Q 172.562663 222.729688 163.728359 236.943955 
" clip-path="url(#pbdbefc3088)" style="fill: none; stroke: #000000; stroke-width: 0.217643; stroke-linecap: round"/>
    <path d="M 166.216094 235.41507 
L 163.728359 236.943955 
L 163.997892 234.036436 
z
" clip-path="url(#pbdbefc3088)" style="stroke: #000000; stroke-width: 0.217643; stroke-linecap: round"/>
   </g>
   <g id="patch_22">
    <path d="M 154.580031 152.407438 
Q 142.663688 167.746016 130.89663 182.892436 
" clip-path="url(#pbdbefc3088)" style="fill: none; stroke: #000000; stroke-width: 0.217643; stroke-linecap: round"/>
    <path d="M 133.530149 181.631129 
L 130.89663 182.892436 
L 131.467696 180.028837 
z
" clip-path="url(#pbdbefc3088)" style="stroke: #000000; stroke-width: 0.217643; stroke-linecap: round"/>
   </g>
   <g id="patch_23">
    <path d="M 88.850147 152.508113 
Q 100.423715 167.745436 111.850102 182.788986 
" clip-path="url(#pbdbefc3088)" style="fill: none; stroke: #000000; stroke-width: 0.217643; stroke-linecap: round"/>
    <path d="M 111.310283 179.919332 
L 111.850102 182.788986 
L 109.230488 181.499049 
z
" clip-path="url(#pbdbefc3088)" style="stroke: #000000; stroke-width: 0.217643; stroke-linecap: round"/>
   </g>
   <g id="PathCollection_1">
    <path d="M 460.683778 96.156326 
L 482.448065 96.156326 
L 482.448065 74.392038 
L 460.683778 74.392038 
z
" clip-path="url(#pbdbefc3088)" style="fill: #1f77b4; fill-opacity: 0.5; stroke: #000000; stroke-width: 0.217643"/>
    <path d="M 265.145529 41.174507 
L 286.909817 41.174507 
L 286.909817 19.41022 
L 265.145529 19.41022 
z
" clip-path="url(#pbdbefc3088)" style="fill: #8c564b; fill-opacity: 0.5; stroke: #000000; stroke-width: 0.217643"/>
    <path d="M 291.723544 96.156326 
L 313.487831 96.156326 
L 313.487831 74.392038 
L 291.723544 74.392038 
z
" clip-path="url(#pbdbefc3088)" style="fill: #1f77b4; fill-opacity: 0.5; stroke: #000000; stroke-width: 0.217643"/>
    <path d="M 54.423641 96.156326 
L 76.187929 96.156326 
L 76.187929 74.392038 
L 54.423641 74.392038 
z
" clip-path="url(#pbdbefc3088)" style="fill: #1f77b4; fill-opacity: 0.5; stroke: #000000; stroke-width: 0.217643"/>
    <path d="M 144.59525 261.10178 
L 166.359538 261.10178 
L 166.359538 239.337493 
L 144.59525 239.337493 
z
" clip-path="url(#pbdbefc3088)" style="fill: #bcbd22; fill-opacity: 0.5; stroke: #000000; stroke-width: 0.217643"/>
   </g>
   <g id="PathCollection_2">
    <defs>
     <path id="C0_0_4e0c93a863" d="M 0 10.882144 
C 2.885978 10.882144 5.654143 9.735532 7.694838 7.694838 
C 9.735532 5.654143 10.882144 2.885978 10.882144 -0 
C 10.882144 -2.885978 9.735532 -5.654143 7.694838 -7.694838 
C 5.654143 -9.735532 2.885978 -10.882144 0 -10.882144 
C -2.885978 -10.882144 -5.654143 -9.735532 -7.694838 -7.694838 
C -9.735532 -5.654143 -10.882144 -2.885978 -10.882144 0 
C -10.882144 2.885978 -9.735532 5.654143 -7.694838 7.694838 
C -5.654143 9.735532 -2.885978 10.882144 0 10.882144 
z
"/>
    </defs>
    <g clip-path="url(#pbdbefc3088)">
     <use xlink:href="#C0_0_4e0c93a863" x="618.694215" y="30.292364" style="fill: #f7b6d2; fill-opacity: 0.5; stroke: #000000; stroke-width: 0.217643"/>
    </g>
    <g clip-path="url(#pbdbefc3088)">
     <use xlink:href="#C0_0_4e0c93a863" x="163.071112" y="30.292364" style="fill: #1f77b4; fill-opacity: 0.5; stroke: #000000; stroke-width: 0.217643"/>
    </g>
    <g clip-path="url(#pbdbefc3088)">
     <use xlink:href="#C0_0_4e0c93a863" x="79.544007" y="140.256" style="fill: #ffbb78; fill-opacity: 0.5; stroke: #000000; stroke-width: 0.217643"/>
    </g>
    <g clip-path="url(#pbdbefc3088)">
     <use xlink:href="#C0_0_4e0c93a863" x="479.15964" y="140.256" style="fill: #d62728; fill-opacity: 0.5; stroke: #000000; stroke-width: 0.217643"/>
    </g>
    <g clip-path="url(#pbdbefc3088)">
     <use xlink:href="#C0_0_4e0c93a863" x="379.492086" y="140.256" style="fill: #d62728; fill-opacity: 0.5; stroke: #000000; stroke-width: 0.217643"/>
    </g>
    <g clip-path="url(#pbdbefc3088)">
     <use xlink:href="#C0_0_4e0c93a863" x="576.928764" y="85.274182" style="fill: #f7b6d2; fill-opacity: 0.5; stroke: #000000; stroke-width: 0.217643"/>
    </g>
    <g clip-path="url(#pbdbefc3088)">
     <use xlink:href="#C0_0_4e0c93a863" x="248.500444" y="140.256" style="fill: #ffbb78; fill-opacity: 0.5; stroke: #000000; stroke-width: 0.217643"/>
    </g>
   </g>
   <g id="PathCollection_3">
    <path d="M 523.331954 41.174507 
L 545.096242 41.174507 
L 545.096242 19.41022 
L 523.331954 19.41022 
z
" clip-path="url(#pbdbefc3088)" style="fill: #e5e5e5; fill-opacity: 0.5; stroke: #000000; stroke-width: 0.217643"/>
    <path d="M 138.899961 96.156326 
L 160.664249 96.156326 
L 160.664249 74.392038 
L 138.899961 74.392038 
z
" clip-path="url(#pbdbefc3088)" style="fill: #e5e5e5; fill-opacity: 0.5; stroke: #000000; stroke-width: 0.217643"/>
    <path d="M 110.423518 206.119962 
L 132.187805 206.119962 
L 132.187805 184.355674 
L 110.423518 184.355674 
z
" clip-path="url(#pbdbefc3088)" style="fill: #e5e5e5; fill-opacity: 0.5; stroke: #000000; stroke-width: 0.217643"/>
    <path d="M 153.138183 151.138144 
L 174.902471 151.138144 
L 174.902471 129.373856 
L 153.138183 129.373856 
z
" clip-path="url(#pbdbefc3088)" style="fill: #e5e5e5; fill-opacity: 0.5; stroke: #000000; stroke-width: 0.217643"/>
   </g>
   <g id="PathCollection_4">
    <defs>
     <path id="C1_0_4f3d9db95f" d="M 0 10.882144 
C 2.885978 10.882144 5.654143 9.735532 7.694838 7.694838 
C 9.735532 5.654143 10.882144 2.885978 10.882144 -0 
C 10.882144 -2.885978 9.735532 -5.654143 7.694838 -7.694838 
C 5.654143 -9.735532 2.885978 -10.882144 0 -10.882144 
C -2.885978 -10.882144 -5.654143 -9.735532 -7.694838 -7.694838 
C -9.735532 -5.654143 -10.882144 -2.885978 -10.882144 0 
C -10.882144 2.885978 -9.735532 5.654143 -7.694838 7.694838 
C -5.654143 9.735532 -2.885978 10.882144 0 10.882144 
z
"/>
    </defs>
    <g clip-path="url(#pbdbefc3088)">
     <use xlink:href="#C1_0_4f3d9db95f" x="387.085804" y="85.274182" style="fill: #e5e5e5; fill-opacity: 0.5; stroke: #000000; stroke-width: 0.217643"/>
    </g>
    <g clip-path="url(#pbdbefc3088)">
     <use xlink:href="#C1_0_4f3d9db95f" x="218.125571" y="85.274182" style="fill: #e5e5e5; fill-opacity: 0.5; stroke: #000000; stroke-width: 0.217643"/>
    </g>
    <g clip-path="url(#pbdbefc3088)">
     <use xlink:href="#C1_0_4f3d9db95f" x="189.649127" y="195.237818" style="fill: #e5e5e5; fill-opacity: 0.5; stroke: #000000; stroke-width: 0.217643"/>
    </g>
   </g>
   <g id="text_1">
    <g clip-path="url(#pbdbefc3088)">
     <!-- GLN300 -->
     <g transform="translate(461.352309 86.68726) scale(0.05121 -0.05121)">
      <defs>
       <path id="DejaVuSans-47" d="M 3809 666 
L 3809 1919 
L 2778 1919 
L 2778 2438 
L 4434 2438 
L 4434 434 
Q 4069 175 3628 42 
Q 3188 -91 2688 -91 
Q 1594 -91 976 548 
Q 359 1188 359 2328 
Q 359 3472 976 4111 
Q 1594 4750 2688 4750 
Q 3144 4750 3555 4637 
Q 3966 4525 4313 4306 
L 4313 3634 
Q 3963 3931 3569 4081 
Q 3175 4231 2741 4231 
Q 1884 4231 1454 3753 
Q 1025 3275 1025 2328 
Q 1025 1384 1454 906 
Q 1884 428 2741 428 
Q 3075 428 3337 486 
Q 3600 544 3809 666 
z
" transform="scale(0.015625)"/>
       <path id="DejaVuSans-4c" d="M 628 4666 
L 1259 4666 
L 1259 531 
L 3531 531 
L 3531 0 
L 628 0 
L 628 4666 
z
" transform="scale(0.015625)"/>
       <path id="DejaVuSans-4e" d="M 628 4666 
L 1478 4666 
L 3547 763 
L 3547 4666 
L 4159 4666 
L 4159 0 
L 3309 0 
L 1241 3903 
L 1241 0 
L 628 0 
L 628 4666 
z
" transform="scale(0.015625)"/>
       <path id="DejaVuSans-33" d="M 2597 2516 
Q 3050 2419 3304 2112 
Q 3559 1806 3559 1356 
Q 3559 666 3084 287 
Q 2609 -91 1734 -91 
Q 1441 -91 1130 -33 
Q 819 25 488 141 
L 488 750 
Q 750 597 1062 519 
Q 1375 441 1716 441 
Q 2309 441 2620 675 
Q 2931 909 2931 1356 
Q 2931 1769 2642 2001 
Q 2353 2234 1838 2234 
L 1294 2234 
L 1294 2753 
L 1863 2753 
Q 2328 2753 2575 2939 
Q 2822 3125 2822 3475 
Q 2822 3834 2567 4026 
Q 2313 4219 1838 4219 
Q 1578 4219 1281 4162 
Q 984 4106 628 3988 
L 628 4550 
Q 988 4650 1302 4700 
Q 1616 4750 1894 4750 
Q 2613 4750 3031 4423 
Q 3450 4097 3450 3541 
Q 3450 3153 3228 2886 
Q 3006 2619 2597 2516 
z
" transform="scale(0.015625)"/>
       <path id="DejaVuSans-30" d="M 2034 4250 
Q 1547 4250 1301 3770 
Q 1056 3291 1056 2328 
Q 1056 1369 1301 889 
Q 1547 409 2034 409 
Q 2525 409 2770 889 
Q 3016 1369 3016 2328 
Q 3016 3291 2770 3770 
Q 2525 4250 2034 4250 
z
M 2034 4750 
Q 2819 4750 3233 4129 
Q 3647 3509 3647 2328 
Q 3647 1150 3233 529 
Q 2819 -91 2034 -91 
Q 1250 -91 836 529 
Q 422 1150 422 2328 
Q 422 3509 836 4129 
Q 1250 4750 2034 4750 
z
" transform="scale(0.015625)"/>
      </defs>
      <use xlink:href="#DejaVuSans-47"/>
      <use xlink:href="#DejaVuSans-4c" transform="translate(77.490234 0)"/>
      <use xlink:href="#DejaVuSans-4e" transform="translate(133.203125 0)"/>
      <use xlink:href="#DejaVuSans-33" transform="translate(208.007812 0)"/>
      <use xlink:href="#DejaVuSans-30" transform="translate(271.630859 0)"/>
      <use xlink:href="#DejaVuSans-30" transform="translate(335.253906 0)"/>
     </g>
    </g>
   </g>
   <g id="text_2">
    <g clip-path="url(#pbdbefc3088)">
     <!-- GLN288 -->
     <g transform="translate(608.480603 31.705442) scale(0.05121 -0.05121)">
      <defs>
       <path id="DejaVuSans-32" d="M 1228 531 
L 3431 531 
L 3431 0 
L 469 0 
L 469 531 
Q 828 903 1448 1529 
Q 2069 2156 2228 2338 
Q 2531 2678 2651 2914 
Q 2772 3150 2772 3378 
Q 2772 3750 2511 3984 
Q 2250 4219 1831 4219 
Q 1534 4219 1204 4116 
Q 875 4013 500 3803 
L 500 4441 
Q 881 4594 1212 4672 
Q 1544 4750 1819 4750 
Q 2544 4750 2975 4387 
Q 3406 4025 3406 3419 
Q 3406 3131 3298 2873 
Q 3191 2616 2906 2266 
Q 2828 2175 2409 1742 
Q 1991 1309 1228 531 
z
" transform="scale(0.015625)"/>
       <path id="DejaVuSans-38" d="M 2034 2216 
Q 1584 2216 1326 1975 
Q 1069 1734 1069 1313 
Q 1069 891 1326 650 
Q 1584 409 2034 409 
Q 2484 409 2743 651 
Q 3003 894 3003 1313 
Q 3003 1734 2745 1975 
Q 2488 2216 2034 2216 
z
M 1403 2484 
Q 997 2584 770 2862 
Q 544 3141 544 3541 
Q 544 4100 942 4425 
Q 1341 4750 2034 4750 
Q 2731 4750 3128 4425 
Q 3525 4100 3525 3541 
Q 3525 3141 3298 2862 
Q 3072 2584 2669 2484 
Q 3125 2378 3379 2068 
Q 3634 1759 3634 1313 
Q 3634 634 3220 271 
Q 2806 -91 2034 -91 
Q 1263 -91 848 271 
Q 434 634 434 1313 
Q 434 1759 690 2068 
Q 947 2378 1403 2484 
z
M 1172 3481 
Q 1172 3119 1398 2916 
Q 1625 2713 2034 2713 
Q 2441 2713 2670 2916 
Q 2900 3119 2900 3481 
Q 2900 3844 2670 4047 
Q 2441 4250 2034 4250 
Q 1625 4250 1398 4047 
Q 1172 3844 1172 3481 
z
" transform="scale(0.015625)"/>
      </defs>
      <use xlink:href="#DejaVuSans-47"/>
      <use xlink:href="#DejaVuSans-4c" transform="translate(77.490234 0)"/>
      <use xlink:href="#DejaVuSans-4e" transform="translate(133.203125 0)"/>
      <use xlink:href="#DejaVuSans-32" transform="translate(208.007812 0)"/>
      <use xlink:href="#DejaVuSans-38" transform="translate(271.630859 0)"/>
      <use xlink:href="#DejaVuSans-38" transform="translate(335.253906 0)"/>
     </g>
    </g>
   </g>
   <g id="text_3">
    <g clip-path="url(#pbdbefc3088)">
     <!-- GLN298 -->
     <g transform="translate(152.8575 31.705442) scale(0.05121 -0.05121)">
      <defs>
       <path id="DejaVuSans-39" d="M 703 97 
L 703 672 
Q 941 559 1184 500 
Q 1428 441 1663 441 
Q 2288 441 2617 861 
Q 2947 1281 2994 2138 
Q 2813 1869 2534 1725 
Q 2256 1581 1919 1581 
Q 1219 1581 811 2004 
Q 403 2428 403 3163 
Q 403 3881 828 4315 
Q 1253 4750 1959 4750 
Q 2769 4750 3195 4129 
Q 3622 3509 3622 2328 
Q 3622 1225 3098 567 
Q 2575 -91 1691 -91 
Q 1453 -91 1209 -44 
Q 966 3 703 97 
z
M 1959 2075 
Q 2384 2075 2632 2365 
Q 2881 2656 2881 3163 
Q 2881 3666 2632 3958 
Q 2384 4250 1959 4250 
Q 1534 4250 1286 3958 
Q 1038 3666 1038 3163 
Q 1038 2656 1286 2365 
Q 1534 2075 1959 2075 
z
" transform="scale(0.015625)"/>
      </defs>
      <use xlink:href="#DejaVuSans-47"/>
      <use xlink:href="#DejaVuSans-4c" transform="translate(77.490234 0)"/>
      <use xlink:href="#DejaVuSans-4e" transform="translate(133.203125 0)"/>
      <use xlink:href="#DejaVuSans-32" transform="translate(208.007812 0)"/>
      <use xlink:href="#DejaVuSans-39" transform="translate(271.630859 0)"/>
      <use xlink:href="#DejaVuSans-38" transform="translate(335.253906 0)"/>
     </g>
    </g>
   </g>
   <g id="text_4">
    <g clip-path="url(#pbdbefc3088)">
     <!-- GLN305 -->
     <g transform="translate(265.814061 31.705442) scale(0.05121 -0.05121)">
      <defs>
       <path id="DejaVuSans-35" d="M 691 4666 
L 3169 4666 
L 3169 4134 
L 1269 4134 
L 1269 2991 
Q 1406 3038 1543 3061 
Q 1681 3084 1819 3084 
Q 2600 3084 3056 2656 
Q 3513 2228 3513 1497 
Q 3513 744 3044 326 
Q 2575 -91 1722 -91 
Q 1428 -91 1123 -41 
Q 819 9 494 109 
L 494 744 
Q 775 591 1075 516 
Q 1375 441 1709 441 
Q 2250 441 2565 725 
Q 2881 1009 2881 1497 
Q 2881 1984 2565 2268 
Q 2250 2553 1709 2553 
Q 1456 2553 1204 2497 
Q 953 2441 691 2322 
L 691 4666 
z
" transform="scale(0.015625)"/>
      </defs>
      <use xlink:href="#DejaVuSans-47"/>
      <use xlink:href="#DejaVuSans-4c" transform="translate(77.490234 0)"/>
      <use xlink:href="#DejaVuSans-4e" transform="translate(133.203125 0)"/>
      <use xlink:href="#DejaVuSans-33" transform="translate(208.007812 0)"/>
      <use xlink:href="#DejaVuSans-30" transform="translate(271.630859 0)"/>
      <use xlink:href="#DejaVuSans-35" transform="translate(335.253906 0)"/>
     </g>
    </g>
   </g>
   <g id="text_5">
    <g clip-path="url(#pbdbefc3088)">
     <!-- GLN301 -->
     <g transform="translate(69.330395 141.669078) scale(0.05121 -0.05121)">
      <defs>
       <path id="DejaVuSans-31" d="M 794 531 
L 1825 531 
L 1825 4091 
L 703 3866 
L 703 4441 
L 1819 4666 
L 2450 4666 
L 2450 531 
L 3481 531 
L 3481 0 
L 794 0 
L 794 531 
z
" transform="scale(0.015625)"/>
      </defs>
      <use xlink:href="#DejaVuSans-47"/>
      <use xlink:href="#DejaVuSans-4c" transform="translate(77.490234 0)"/>
      <use xlink:href="#DejaVuSans-4e" transform="translate(133.203125 0)"/>
      <use xlink:href="#DejaVuSans-33" transform="translate(208.007812 0)"/>
      <use xlink:href="#DejaVuSans-30" transform="translate(271.630859 0)"/>
      <use xlink:href="#DejaVuSans-31" transform="translate(335.253906 0)"/>
     </g>
    </g>
   </g>
   <g id="text_6">
    <g clip-path="url(#pbdbefc3088)">
     <!-- GLN307 -->
     <g transform="translate(468.946028 141.669078) scale(0.05121 -0.05121)">
      <defs>
       <path id="DejaVuSans-37" d="M 525 4666 
L 3525 4666 
L 3525 4397 
L 1831 0 
L 1172 0 
L 2766 4134 
L 525 4134 
L 525 4666 
z
" transform="scale(0.015625)"/>
      </defs>
      <use xlink:href="#DejaVuSans-47"/>
      <use xlink:href="#DejaVuSans-4c" transform="translate(77.490234 0)"/>
      <use xlink:href="#DejaVuSans-4e" transform="translate(133.203125 0)"/>
      <use xlink:href="#DejaVuSans-33" transform="translate(208.007812 0)"/>
      <use xlink:href="#DejaVuSans-30" transform="translate(271.630859 0)"/>
      <use xlink:href="#DejaVuSans-37" transform="translate(335.253906 0)"/>
     </g>
    </g>
   </g>
   <g id="text_7">
    <g clip-path="url(#pbdbefc3088)">
     <!-- GLN277 -->
     <g transform="translate(369.278474 141.669078) scale(0.05121 -0.05121)">
      <use xlink:href="#DejaVuSans-47"/>
      <use xlink:href="#DejaVuSans-4c" transform="translate(77.490234 0)"/>
      <use xlink:href="#DejaVuSans-4e" transform="translate(133.203125 0)"/>
      <use xlink:href="#DejaVuSans-32" transform="translate(208.007812 0)"/>
      <use xlink:href="#DejaVuSans-37" transform="translate(271.630859 0)"/>
      <use xlink:href="#DejaVuSans-37" transform="translate(335.253906 0)"/>
     </g>
    </g>
   </g>
   <g id="text_8">
    <g clip-path="url(#pbdbefc3088)">
     <!-- GLN289B -->
     <g transform="translate(564.958406 86.68726) scale(0.05121 -0.05121)">
      <defs>
       <path id="DejaVuSans-42" d="M 1259 2228 
L 1259 519 
L 2272 519 
Q 2781 519 3026 730 
Q 3272 941 3272 1375 
Q 3272 1813 3026 2020 
Q 2781 2228 2272 2228 
L 1259 2228 
z
M 1259 4147 
L 1259 2741 
L 2194 2741 
Q 2656 2741 2882 2914 
Q 3109 3088 3109 3444 
Q 3109 3797 2882 3972 
Q 2656 4147 2194 4147 
L 1259 4147 
z
M 628 4666 
L 2241 4666 
Q 2963 4666 3353 4366 
Q 3744 4066 3744 3513 
Q 3744 3084 3544 2831 
Q 3344 2578 2956 2516 
Q 3422 2416 3680 2098 
Q 3938 1781 3938 1306 
Q 3938 681 3513 340 
Q 3088 0 2303 0 
L 628 0 
L 628 4666 
z
" transform="scale(0.015625)"/>
      </defs>
      <use xlink:href="#DejaVuSans-47"/>
      <use xlink:href="#DejaVuSans-4c" transform="translate(77.490234 0)"/>
      <use xlink:href="#DejaVuSans-4e" transform="translate(133.203125 0)"/>
      <use xlink:href="#DejaVuSans-32" transform="translate(208.007812 0)"/>
      <use xlink:href="#DejaVuSans-38" transform="translate(271.630859 0)"/>
      <use xlink:href="#DejaVuSans-39" transform="translate(335.253906 0)"/>
      <use xlink:href="#DejaVuSans-42" transform="translate(398.876953 0)"/>
     </g>
    </g>
   </g>
   <g id="text_9">
    <g clip-path="url(#pbdbefc3088)">
     <!-- GLN291 -->
     <g transform="translate(292.392075 86.68726) scale(0.05121 -0.05121)">
      <use xlink:href="#DejaVuSans-47"/>
      <use xlink:href="#DejaVuSans-4c" transform="translate(77.490234 0)"/>
      <use xlink:href="#DejaVuSans-4e" transform="translate(133.203125 0)"/>
      <use xlink:href="#DejaVuSans-32" transform="translate(208.007812 0)"/>
      <use xlink:href="#DejaVuSans-39" transform="translate(271.630859 0)"/>
      <use xlink:href="#DejaVuSans-31" transform="translate(335.253906 0)"/>
     </g>
    </g>
   </g>
   <g id="text_10">
    <g clip-path="url(#pbdbefc3088)">
     <!-- GLN280 -->
     <g transform="translate(55.092173 86.68726) scale(0.05121 -0.05121)">
      <use xlink:href="#DejaVuSans-47"/>
      <use xlink:href="#DejaVuSans-4c" transform="translate(77.490234 0)"/>
      <use xlink:href="#DejaVuSans-4e" transform="translate(133.203125 0)"/>
      <use xlink:href="#DejaVuSans-32" transform="translate(208.007812 0)"/>
      <use xlink:href="#DejaVuSans-38" transform="translate(271.630859 0)"/>
      <use xlink:href="#DejaVuSans-30" transform="translate(335.253906 0)"/>
     </g>
    </g>
   </g>
   <g id="text_11">
    <g clip-path="url(#pbdbefc3088)">
     <!-- GLN306 -->
     <g transform="translate(238.286832 141.669078) scale(0.05121 -0.05121)">
      <defs>
       <path id="DejaVuSans-36" d="M 2113 2584 
Q 1688 2584 1439 2293 
Q 1191 2003 1191 1497 
Q 1191 994 1439 701 
Q 1688 409 2113 409 
Q 2538 409 2786 701 
Q 3034 994 3034 1497 
Q 3034 2003 2786 2293 
Q 2538 2584 2113 2584 
z
M 3366 4563 
L 3366 3988 
Q 3128 4100 2886 4159 
Q 2644 4219 2406 4219 
Q 1781 4219 1451 3797 
Q 1122 3375 1075 2522 
Q 1259 2794 1537 2939 
Q 1816 3084 2150 3084 
Q 2853 3084 3261 2657 
Q 3669 2231 3669 1497 
Q 3669 778 3244 343 
Q 2819 -91 2113 -91 
Q 1303 -91 875 529 
Q 447 1150 447 2328 
Q 447 3434 972 4092 
Q 1497 4750 2381 4750 
Q 2619 4750 2861 4703 
Q 3103 4656 3366 4563 
z
" transform="scale(0.015625)"/>
      </defs>
      <use xlink:href="#DejaVuSans-47"/>
      <use xlink:href="#DejaVuSans-4c" transform="translate(77.490234 0)"/>
      <use xlink:href="#DejaVuSans-4e" transform="translate(133.203125 0)"/>
      <use xlink:href="#DejaVuSans-33" transform="translate(208.007812 0)"/>
      <use xlink:href="#DejaVuSans-30" transform="translate(271.630859 0)"/>
      <use xlink:href="#DejaVuSans-36" transform="translate(335.253906 0)"/>
     </g>
    </g>
   </g>
   <g id="text_12">
    <g clip-path="url(#pbdbefc3088)">
     <!-- GLN309 -->
     <g transform="translate(145.263782 251.632715) scale(0.05121 -0.05121)">
      <use xlink:href="#DejaVuSans-47"/>
      <use xlink:href="#DejaVuSans-4c" transform="translate(77.490234 0)"/>
      <use xlink:href="#DejaVuSans-4e" transform="translate(133.203125 0)"/>
      <use xlink:href="#DejaVuSans-33" transform="translate(208.007812 0)"/>
      <use xlink:href="#DejaVuSans-30" transform="translate(271.630859 0)"/>
      <use xlink:href="#DejaVuSans-39" transform="translate(335.253906 0)"/>
     </g>
    </g>
   </g>
  </g>
 </g>
 <defs>
  <clipPath id="pbdbefc3088">
   <rect x="7.2" y="7.2" width="669.6" height="266.112"/>
  </clipPath>
 </defs>
</svg>
