<?xml version="1.0" encoding="utf-8" standalone="no"?>
<!DOCTYPE svg PUBLIC "-//W3C//DTD SVG 1.1//EN"
  "http://www.w3.org/Graphics/SVG/1.1/DTD/svg11.dtd">
<svg xmlns:xlink="http://www.w3.org/1999/xlink" width="684pt" height="280.512pt" viewBox="0 0 684 280.512" xmlns="http://www.w3.org/2000/svg" version="1.1">
 <metadata>
  <rdf:RDF xmlns:dc="http://purl.org/dc/elements/1.1/" xmlns:cc="http://creativecommons.org/ns#" xmlns:rdf="http://www.w3.org/1999/02/22-rdf-syntax-ns#">
   <cc:Work>
    <dc:type rdf:resource="http://purl.org/dc/dcmitype/StillImage"/>
    <dc:date>2026-01-07T20:54:14.428970</dc:date>
    <dc:format>image/svg+xml</dc:format>
    <dc:creator>
     <cc:Agent>
      <dc:title>Matplotlib v3.10.8, https://matplotlib.org/</dc:title>
     </cc:Agent>
    </dc:creator>
   </cc:Work>
  </rdf:RDF>
 </metadata>
 <defs>
  <style type="text/css">*{stroke-linejoin: round; stroke-linecap: butt}</style>
 </defs>
 <g id="figure_1">
  <g id="patch_1">
   <path d="M 0 280.512 
L 684 280.512 
L 684 0 
L 0 0 
z
" style="fill: #ffffff"/>
  </g>
  <g id="axes_1">
   <g id="patch_2">
    <path d="M 266.370994 36.069414 
Q 211.04579 57.783451 155.953303 79.40615 
" clip-path="url(#pe005f299b1)" style="fill: none; stroke: #000000; stroke-width: 0.223607; stroke-linecap: round"/>
    <path d="M 158.941258 79.674712 
L 155.953303 79.40615 
L 157.960926 77.176923 
z
" clip-path="url(#pe005f299b1)" style="stroke: #000000; stroke-width: 0.223607; stroke-linecap: round"/>
   </g>
   <g id="patch_3">
    <path d="M 294.637932 38.445338 
Q 326.771233 57.783244 358.690331 76.992242 
" clip-path="url(#pe005f299b1)" style="fill: none; stroke: #000000; stroke-width: 0.223607; stroke-linecap: round"/>
    <path d="M 357.083058 74.459127 
L 358.690331 76.992242 
L 355.699475 76.758191 
z
" clip-path="url(#pe005f299b1)" style="stroke: #000000; stroke-width: 0.223607; stroke-linecap: round"/>
   </g>
   <g id="patch_4">
    <path d="M 281.090345 46.10165 
Q 281.090345 57.781204 281.090345 69.210759 
" clip-path="url(#pe005f299b1)" style="fill: none; stroke: #000000; stroke-width: 0.223607; stroke-linecap: round"/>
    <path d="M 282.431986 66.527477 
L 281.090345 69.210759 
L 279.748704 66.527477 
z
" clip-path="url(#pe005f299b1)" style="stroke: #000000; stroke-width: 0.223607; stroke-linecap: round"/>
   </g>
   <g id="patch_5">
    <path d="M 296.23275 34.848733 
Q 372.45316 57.783556 448.434172 80.646344 
" clip-path="url(#pe005f299b1)" style="fill: none; stroke: #000000; stroke-width: 0.223607; stroke-linecap: round"/>
    <path d="M 446.251273 78.588445 
L 448.434172 80.646344 
L 445.478113 81.157924 
z
" clip-path="url(#pe005f299b1)" style="stroke: #000000; stroke-width: 0.223607; stroke-linecap: round"/>
   </g>
   <g id="patch_6">
    <path d="M 357.071891 33.946017 
Q 256.727182 57.783272 156.625704 81.562747 
" clip-path="url(#pe005f299b1)" style="fill: none; stroke: #000000; stroke-width: 0.223607; stroke-linecap: round"/>
    <path d="M 159.546417 82.247898 
L 156.625704 81.562747 
L 158.926252 79.637266 
z
" clip-path="url(#pe005f299b1)" style="stroke: #000000; stroke-width: 0.223607; stroke-linecap: round"/>
   </g>
   <g id="patch_7">
    <path d="M 372.452217 46.10165 
Q 372.452217 57.781204 372.452217 69.210759 
" clip-path="url(#pe005f299b1)" style="fill: none; stroke: #000000; stroke-width: 0.223607; stroke-linecap: round"/>
    <path d="M 373.793858 66.527477 
L 372.452217 69.210759 
L 371.110576 66.527477 
z
" clip-path="url(#pe005f299b1)" style="stroke: #000000; stroke-width: 0.223607; stroke-linecap: round"/>
   </g>
   <g id="patch_8">
    <path d="M 358.90463 38.445338 
Q 326.771329 57.783244 294.852231 76.992242 
" clip-path="url(#pe005f299b1)" style="fill: none; stroke: #000000; stroke-width: 0.223607; stroke-linecap: round"/>
    <path d="M 297.843087 76.758191 
L 294.852231 76.992242 
L 296.459504 74.459127 
z
" clip-path="url(#pe005f299b1)" style="stroke: #000000; stroke-width: 0.223607; stroke-linecap: round"/>
   </g>
   <g id="patch_9">
    <path d="M 385.999804 38.445338 
Q 418.133105 57.783244 450.052203 76.992242 
" clip-path="url(#pe005f299b1)" style="fill: none; stroke: #000000; stroke-width: 0.223607; stroke-linecap: round"/>
    <path d="M 448.44493 74.459127 
L 450.052203 76.992242 
L 447.061347 76.758191 
z
" clip-path="url(#pe005f299b1)" style="stroke: #000000; stroke-width: 0.223607; stroke-linecap: round"/>
   </g>
   <g id="patch_10">
    <path d="M 527.706565 93.427156 
Q 495.573264 112.765062 463.654166 131.97406 
" clip-path="url(#pe005f299b1)" style="fill: none; stroke: #000000; stroke-width: 0.223607; stroke-linecap: round"/>
    <path d="M 466.645022 131.740009 
L 463.654166 131.97406 
L 465.261439 129.440945 
z
" clip-path="url(#pe005f299b1)" style="stroke: #000000; stroke-width: 0.223607; stroke-linecap: round"/>
   </g>
   <g id="patch_11">
    <path d="M 541.254152 101.083468 
Q 541.254152 112.763022 541.254152 124.192577 
" clip-path="url(#pe005f299b1)" style="fill: none; stroke: #000000; stroke-width: 0.223607; stroke-linecap: round"/>
    <path d="M 542.595793 121.509295 
L 541.254152 124.192577 
L 539.912511 121.509295 
z
" clip-path="url(#pe005f299b1)" style="stroke: #000000; stroke-width: 0.223607; stroke-linecap: round"/>
   </g>
   <g id="patch_12">
    <path d="M 459.933419 100.600229 
Q 456.853785 112.76272 453.835516 124.682859 
" clip-path="url(#pe005f299b1)" style="fill: none; stroke: #000000; stroke-width: 0.223607; stroke-linecap: round"/>
    <path d="M 455.794752 122.410989 
L 453.835516 124.682859 
L 453.193562 121.752348 
z
" clip-path="url(#pe005f299b1)" style="stroke: #000000; stroke-width: 0.223607; stroke-linecap: round"/>
   </g>
   <g id="patch_13">
    <path d="M 476.705799 94.427191 
Q 502.532626 112.764029 528.155606 130.956138 
" clip-path="url(#pe005f299b1)" style="fill: none; stroke: #000000; stroke-width: 0.223607; stroke-linecap: round"/>
    <path d="M 526.744395 128.308784 
L 528.155606 130.956138 
L 525.190996 130.496695 
z
" clip-path="url(#pe005f299b1)" style="stroke: #000000; stroke-width: 0.223607; stroke-linecap: round"/>
   </g>
   <g id="patch_14">
    <path d="M 244.880598 208.214789 
Q 254.987552 222.729587 264.951646 237.039222 
" clip-path="url(#pe005f299b1)" style="fill: none; stroke: #000000; stroke-width: 0.223607; stroke-linecap: round"/>
    <path d="M 264.519342 234.070533 
L 264.951646 237.039222 
L 262.317313 235.603852 
z
" clip-path="url(#pe005f299b1)" style="stroke: #000000; stroke-width: 0.223607; stroke-linecap: round"/>
   </g>
   <g id="patch_15">
    <path d="M 304.114724 208.114114 
Q 293.70754 222.727948 283.445376 237.138142 
" clip-path="url(#pe005f299b1)" style="fill: none; stroke: #000000; stroke-width: 0.223607; stroke-linecap: round"/>
    <path d="M 286.094746 235.730721 
L 283.445376 237.138142 
L 283.90906 234.174193 
z
" clip-path="url(#pe005f299b1)" style="stroke: #000000; stroke-width: 0.223607; stroke-linecap: round"/>
   </g>
   <g id="patch_16">
    <path d="M 603.133867 143.057274 
Q 465.991026 167.746611 329.09423 192.391654 
" clip-path="url(#pe005f299b1)" style="fill: none; stroke: #000000; stroke-width: 0.223607; stroke-linecap: round"/>
    <path d="M 331.972769 193.236649 
L 329.09423 192.391654 
L 331.49735 190.59582 
z
" clip-path="url(#pe005f299b1)" style="stroke: #000000; stroke-width: 0.223607; stroke-linecap: round"/>
   </g>
   <g id="patch_17">
    <path d="M 275.806309 152.179242 
Q 289.353963 167.744087 302.737482 183.120358 
" clip-path="url(#pe005f299b1)" style="fill: none; stroke: #000000; stroke-width: 0.223607; stroke-linecap: round"/>
    <path d="M 301.987797 180.215539 
L 302.737482 183.120358 
L 299.963816 181.977214 
z
" clip-path="url(#pe005f299b1)" style="stroke: #000000; stroke-width: 0.223607; stroke-linecap: round"/>
   </g>
   <g id="patch_18">
    <path d="M 215.461786 95.7863 
Q 234.539275 112.765073 253.430015 129.577639 
" clip-path="url(#pe005f299b1)" style="fill: none; stroke: #000000; stroke-width: 0.223607; stroke-linecap: round"/>
    <path d="M 252.317555 126.791525 
L 253.430015 129.577639 
L 250.533648 128.795938 
z
" clip-path="url(#pe005f299b1)" style="stroke: #000000; stroke-width: 0.223607; stroke-linecap: round"/>
   </g>
   <g id="patch_19">
    <path d="M 276.759005 100.47942 
Q 273.259311 112.765149 269.828107 124.810443 
" clip-path="url(#pe005f299b1)" style="fill: none; stroke: #000000; stroke-width: 0.223607; stroke-linecap: round"/>
    <path d="M 271.85353 122.597376 
L 269.828107 124.810443 
L 269.272908 121.862264 
z
" clip-path="url(#pe005f299b1)" style="stroke: #000000; stroke-width: 0.223607; stroke-linecap: round"/>
   </g>
   <g id="patch_20">
    <path d="M 145.333482 100.47942 
Q 148.833176 112.765149 152.264379 124.810443 
" clip-path="url(#pe005f299b1)" style="fill: none; stroke: #000000; stroke-width: 0.223607; stroke-linecap: round"/>
    <path d="M 152.819578 121.862264 
L 152.264379 124.810443 
L 150.238956 122.597376 
z
" clip-path="url(#pe005f299b1)" style="stroke: #000000; stroke-width: 0.223607; stroke-linecap: round"/>
   </g>
   <g id="patch_21">
    <path d="M 128.211287 94.56478 
Q 103.153135 112.765692 78.297257 130.819684 
" clip-path="url(#pe005f299b1)" style="fill: none; stroke: #000000; stroke-width: 0.223607; stroke-linecap: round"/>
    <path d="M 81.256737 130.32828 
L 78.297257 130.819684 
L 79.679821 128.157258 
z
" clip-path="url(#pe005f299b1)" style="stroke: #000000; stroke-width: 0.223607; stroke-linecap: round"/>
   </g>
   <g id="patch_22">
    <path d="M 285.532176 100.445862 
Q 297.187266 140.255417 308.842357 180.064972 
" clip-path="url(#pe005f299b1)" style="fill: none; stroke-dasharray: 1.006231,1.006231; stroke-dashoffset: 0; stroke: #0000ff; stroke-width: 0.33541; stroke-linecap: round"/>
   </g>
   <g id="PathCollection_1">
    <path d="M 269.910005 41.472704 
L 292.270685 41.472704 
L 292.270685 19.112024 
L 269.910005 19.112024 
z
" clip-path="url(#pe005f299b1)" style="fill: #8c564b; fill-opacity: 0.5; stroke: #000000; stroke-width: 0.223607"/>
    <path d="M 452.633749 96.454522 
L 474.994429 96.454522 
L 474.994429 74.093842 
L 452.633749 74.093842 
z
" clip-path="url(#pe005f299b1)" style="fill: #1f77b4; fill-opacity: 0.5; stroke: #000000; stroke-width: 0.223607"/>
    <path d="M 269.910005 96.454522 
L 292.270685 96.454522 
L 292.270685 74.093842 
L 269.910005 74.093842 
z
" clip-path="url(#pe005f299b1)" style="fill: #1f77b4; fill-opacity: 0.5; stroke: #000000; stroke-width: 0.223607"/>
    <path d="M 361.271877 96.454522 
L 383.632557 96.454522 
L 383.632557 74.093842 
L 361.271877 74.093842 
z
" clip-path="url(#pe005f299b1)" style="fill: #1f77b4; fill-opacity: 0.5; stroke: #000000; stroke-width: 0.223607"/>
    <path d="M 452.633749 41.472704 
L 474.994429 41.472704 
L 474.994429 19.112024 
L 452.633749 19.112024 
z
" clip-path="url(#pe005f299b1)" style="fill: #bcbd22; fill-opacity: 0.5; stroke: #000000; stroke-width: 0.223607"/>
   </g>
   <g id="PathCollection_2">
    <defs>
     <path id="C0_0_9aa2bac02d" d="M 0 11.18034 
C 2.965061 11.18034 5.80908 10.002309 7.905694 7.905694 
C 10.002309 5.80908 11.18034 2.965061 11.18034 -0 
C 11.18034 -2.965061 10.002309 -5.80908 7.905694 -7.905694 
C 5.80908 -10.002309 2.965061 -11.18034 0 -11.18034 
C -2.965061 -11.18034 -5.80908 -10.002309 -7.905694 -7.905694 
C -10.002309 -5.80908 -11.18034 -2.965061 -11.18034 0 
C -11.18034 2.965061 -10.002309 5.80908 -7.905694 7.905694 
C -5.80908 10.002309 -2.965061 11.18034 0 11.18034 
z
"/>
    </defs>
    <g clip-path="url(#pe005f299b1)">
     <use xlink:href="#C0_0_9aa2bac02d" x="372.452217" y="30.292364" style="fill: #1f77b4; fill-opacity: 0.5; stroke: #000000; stroke-width: 0.223607"/>
    </g>
    <g clip-path="url(#pe005f299b1)">
     <use xlink:href="#C0_0_9aa2bac02d" x="313.284529" y="195.237818" style="fill: #f7b6d2; fill-opacity: 0.5; stroke: #000000; stroke-width: 0.223607"/>
    </g>
    <g clip-path="url(#pe005f299b1)">
     <use xlink:href="#C0_0_9aa2bac02d" x="449.89228" y="140.256" style="fill: #d62728; fill-opacity: 0.5; stroke: #000000; stroke-width: 0.223607"/>
    </g>
    <g clip-path="url(#pe005f299b1)">
     <use xlink:href="#C0_0_9aa2bac02d" x="541.254152" y="140.256" style="fill: #d62728; fill-opacity: 0.5; stroke: #000000; stroke-width: 0.223607"/>
    </g>
    <g clip-path="url(#pe005f299b1)">
     <use xlink:href="#C0_0_9aa2bac02d" x="274.129441" y="250.219636" style="fill: #f7b6d2; fill-opacity: 0.5; stroke: #000000; stroke-width: 0.223607"/>
    </g>
    <g clip-path="url(#pe005f299b1)">
     <use xlink:href="#C0_0_9aa2bac02d" x="156.664177" y="140.256" style="fill: #ffbb78; fill-opacity: 0.5; stroke: #000000; stroke-width: 0.223607"/>
    </g>
    <g clip-path="url(#pe005f299b1)">
     <use xlink:href="#C0_0_9aa2bac02d" x="65.305785" y="140.256" style="fill: #ffbb78; fill-opacity: 0.5; stroke: #000000; stroke-width: 0.223607"/>
    </g>
   </g>
   <g id="PathCollection_3">
    <path d="M 224.664126 206.418158 
L 247.024806 206.418158 
L 247.024806 184.057478 
L 224.664126 184.057478 
z
" clip-path="url(#pe005f299b1)" style="fill: #e5e5e5; fill-opacity: 0.5; stroke: #000000; stroke-width: 0.223607"/>
    <path d="M 607.513875 151.43634 
L 629.874555 151.43634 
L 629.874555 129.07566 
L 607.513875 129.07566 
z
" clip-path="url(#pe005f299b1)" style="fill: #e5e5e5; fill-opacity: 0.5; stroke: #000000; stroke-width: 0.223607"/>
    <path d="M 129.821802 96.454522 
L 152.182481 96.454522 
L 152.182481 74.093842 
L 129.821802 74.093842 
z
" clip-path="url(#pe005f299b1)" style="fill: #e5e5e5; fill-opacity: 0.5; stroke: #000000; stroke-width: 0.223607"/>
   </g>
   <g id="PathCollection_4">
    <defs>
     <path id="C1_0_19cce535c3" d="M 0 11.18034 
C 2.965061 11.18034 5.80908 10.002309 7.905694 7.905694 
C 10.002309 5.80908 11.18034 2.965061 11.18034 -0 
C 11.18034 -2.965061 10.002309 -5.80908 7.905694 -7.905694 
C 5.80908 -10.002309 2.965061 -11.18034 0 -11.18034 
C -2.965061 -11.18034 -5.80908 -10.002309 -7.905694 -7.905694 
C -10.002309 -5.80908 -11.18034 -2.965061 -11.18034 0 
C -11.18034 2.965061 -10.002309 5.80908 -7.905694 7.905694 
C -5.80908 10.002309 -2.965061 11.18034 0 11.18034 
z
"/>
    </defs>
    <g clip-path="url(#pe005f299b1)">
     <use xlink:href="#C1_0_19cce535c3" x="541.254152" y="85.274182" style="fill: #e5e5e5; fill-opacity: 0.5; stroke: #000000; stroke-width: 0.223607"/>
    </g>
    <g clip-path="url(#pe005f299b1)">
     <use xlink:href="#C1_0_19cce535c3" x="265.42831" y="140.256" style="fill: #e5e5e5; fill-opacity: 0.5; stroke: #000000; stroke-width: 0.223607"/>
    </g>
    <g clip-path="url(#pe005f299b1)">
     <use xlink:href="#C1_0_19cce535c3" x="203.650282" y="85.274182" style="fill: #e5e5e5; fill-opacity: 0.5; stroke: #000000; stroke-width: 0.223607"/>
    </g>
   </g>
   <g id="text_1">
    <g clip-path="url(#pe005f299b1)">
     <!-- GLN305 -->
     <g transform="translate(270.596856 31.744164) scale(0.052613 -0.052613)">
      <defs>
       <path id="DejaVuSans-47" d="M 3809 666 
L 3809 1919 
L 2778 1919 
L 2778 2438 
L 4434 2438 
L 4434 434 
Q 4069 175 3628 42 
Q 3188 -91 2688 -91 
Q 1594 -91 976 548 
Q 359 1188 359 2328 
Q 359 3472 976 4111 
Q 1594 4750 2688 4750 
Q 3144 4750 3555 4637 
Q 3966 4525 4313 4306 
L 4313 3634 
Q 3963 3931 3569 4081 
Q 3175 4231 2741 4231 
Q 1884 4231 1454 3753 
Q 1025 3275 1025 2328 
Q 1025 1384 1454 906 
Q 1884 428 2741 428 
Q 3075 428 3337 486 
Q 3600 544 3809 666 
z
" transform="scale(0.015625)"/>
       <path id="DejaVuSans-4c" d="M 628 4666 
L 1259 4666 
L 1259 531 
L 3531 531 
L 3531 0 
L 628 0 
L 628 4666 
z
" transform="scale(0.015625)"/>
       <path id="DejaVuSans-4e" d="M 628 4666 
L 1478 4666 
L 3547 763 
L 3547 4666 
L 4159 4666 
L 4159 0 
L 3309 0 
L 1241 3903 
L 1241 0 
L 628 0 
L 628 4666 
z
" transform="scale(0.015625)"/>
       <path id="DejaVuSans-33" d="M 2597 2516 
Q 3050 2419 3304 2112 
Q 3559 1806 3559 1356 
Q 3559 666 3084 287 
Q 2609 -91 1734 -91 
Q 1441 -91 1130 -33 
Q 819 25 488 141 
L 488 750 
Q 750 597 1062 519 
Q 1375 441 1716 441 
Q 2309 441 2620 675 
Q 2931 909 2931 1356 
Q 2931 1769 2642 2001 
Q 2353 2234 1838 2234 
L 1294 2234 
L 1294 2753 
L 1863 2753 
Q 2328 2753 2575 2939 
Q 2822 3125 2822 3475 
Q 2822 3834 2567 4026 
Q 2313 4219 1838 4219 
Q 1578 4219 1281 4162 
Q 984 4106 628 3988 
L 628 4550 
Q 988 4650 1302 4700 
Q 1616 4750 1894 4750 
Q 2613 4750 3031 4423 
Q 3450 4097 3450 3541 
Q 3450 3153 3228 2886 
Q 3006 2619 2597 2516 
z
" transform="scale(0.015625)"/>
       <path id="DejaVuSans-30" d="M 2034 4250 
Q 1547 4250 1301 3770 
Q 1056 3291 1056 2328 
Q 1056 1369 1301 889 
Q 1547 409 2034 409 
Q 2525 409 2770 889 
Q 3016 1369 3016 2328 
Q 3016 3291 2770 3770 
Q 2525 4250 2034 4250 
z
M 2034 4750 
Q 2819 4750 3233 4129 
Q 3647 3509 3647 2328 
Q 3647 1150 3233 529 
Q 2819 -91 2034 -91 
Q 1250 -91 836 529 
Q 422 1150 422 2328 
Q 422 3509 836 4129 
Q 1250 4750 2034 4750 
z
" transform="scale(0.015625)"/>
       <path id="DejaVuSans-35" d="M 691 4666 
L 3169 4666 
L 3169 4134 
L 1269 4134 
L 1269 2991 
Q 1406 3038 1543 3061 
Q 1681 3084 1819 3084 
Q 2600 3084 3056 2656 
Q 3513 2228 3513 1497 
Q 3513 744 3044 326 
Q 2575 -91 1722 -91 
Q 1428 -91 1123 -41 
Q 819 9 494 109 
L 494 744 
Q 775 591 1075 516 
Q 1375 441 1709 441 
Q 2250 441 2565 725 
Q 2881 1009 2881 1497 
Q 2881 1984 2565 2268 
Q 2250 2553 1709 2553 
Q 1456 2553 1204 2497 
Q 953 2441 691 2322 
L 691 4666 
z
" transform="scale(0.015625)"/>
      </defs>
      <use xlink:href="#DejaVuSans-47"/>
      <use xlink:href="#DejaVuSans-4c" transform="translate(77.490234 0)"/>
      <use xlink:href="#DejaVuSans-4e" transform="translate(133.203125 0)"/>
      <use xlink:href="#DejaVuSans-33" transform="translate(208.007812 0)"/>
      <use xlink:href="#DejaVuSans-30" transform="translate(271.630859 0)"/>
      <use xlink:href="#DejaVuSans-35" transform="translate(335.253906 0)"/>
     </g>
    </g>
   </g>
   <g id="text_2">
    <g clip-path="url(#pe005f299b1)">
     <!-- GLN298 -->
     <g transform="translate(361.958728 31.744164) scale(0.052613 -0.052613)">
      <defs>
       <path id="DejaVuSans-32" d="M 1228 531 
L 3431 531 
L 3431 0 
L 469 0 
L 469 531 
Q 828 903 1448 1529 
Q 2069 2156 2228 2338 
Q 2531 2678 2651 2914 
Q 2772 3150 2772 3378 
Q 2772 3750 2511 3984 
Q 2250 4219 1831 4219 
Q 1534 4219 1204 4116 
Q 875 4013 500 3803 
L 500 4441 
Q 881 4594 1212 4672 
Q 1544 4750 1819 4750 
Q 2544 4750 2975 4387 
Q 3406 4025 3406 3419 
Q 3406 3131 3298 2873 
Q 3191 2616 2906 2266 
Q 2828 2175 2409 1742 
Q 1991 1309 1228 531 
z
" transform="scale(0.015625)"/>
       <path id="DejaVuSans-39" d="M 703 97 
L 703 672 
Q 941 559 1184 500 
Q 1428 441 1663 441 
Q 2288 441 2617 861 
Q 2947 1281 2994 2138 
Q 2813 1869 2534 1725 
Q 2256 1581 1919 1581 
Q 1219 1581 811 2004 
Q 403 2428 403 3163 
Q 403 3881 828 4315 
Q 1253 4750 1959 4750 
Q 2769 4750 3195 4129 
Q 3622 3509 3622 2328 
Q 3622 1225 3098 567 
Q 2575 -91 1691 -91 
Q 1453 -91 1209 -44 
Q 966 3 703 97 
z
M 1959 2075 
Q 2384 2075 2632 2365 
Q 2881 2656 2881 3163 
Q 2881 3666 2632 3958 
Q 2384 4250 1959 4250 
Q 1534 4250 1286 3958 
Q 1038 3666 1038 3163 
Q 1038 2656 1286 2365 
Q 1534 2075 1959 2075 
z
" transform="scale(0.015625)"/>
       <path id="DejaVuSans-38" d="M 2034 2216 
Q 1584 2216 1326 1975 
Q 1069 1734 1069 1313 
Q 1069 891 1326 650 
Q 1584 409 2034 409 
Q 2484 409 2743 651 
Q 3003 894 3003 1313 
Q 3003 1734 2745 1975 
Q 2488 2216 2034 2216 
z
M 1403 2484 
Q 997 2584 770 2862 
Q 544 3141 544 3541 
Q 544 4100 942 4425 
Q 1341 4750 2034 4750 
Q 2731 4750 3128 4425 
Q 3525 4100 3525 3541 
Q 3525 3141 3298 2862 
Q 3072 2584 2669 2484 
Q 3125 2378 3379 2068 
Q 3634 1759 3634 1313 
Q 3634 634 3220 271 
Q 2806 -91 2034 -91 
Q 1263 -91 848 271 
Q 434 634 434 1313 
Q 434 1759 690 2068 
Q 947 2378 1403 2484 
z
M 1172 3481 
Q 1172 3119 1398 2916 
Q 1625 2713 2034 2713 
Q 2441 2713 2670 2916 
Q 2900 3119 2900 3481 
Q 2900 3844 2670 4047 
Q 2441 4250 2034 4250 
Q 1625 4250 1398 4047 
Q 1172 3844 1172 3481 
z
" transform="scale(0.015625)"/>
      </defs>
      <use xlink:href="#DejaVuSans-47"/>
      <use xlink:href="#DejaVuSans-4c" transform="translate(77.490234 0)"/>
      <use xlink:href="#DejaVuSans-4e" transform="translate(133.203125 0)"/>
      <use xlink:href="#DejaVuSans-32" transform="translate(208.007812 0)"/>
      <use xlink:href="#DejaVuSans-39" transform="translate(271.630859 0)"/>
      <use xlink:href="#DejaVuSans-38" transform="translate(335.253906 0)"/>
     </g>
    </g>
   </g>
   <g id="text_3">
    <g clip-path="url(#pe005f299b1)">
     <!-- GLN300 -->
     <g transform="translate(453.3206 86.725982) scale(0.052613 -0.052613)">
      <use xlink:href="#DejaVuSans-47"/>
      <use xlink:href="#DejaVuSans-4c" transform="translate(77.490234 0)"/>
      <use xlink:href="#DejaVuSans-4e" transform="translate(133.203125 0)"/>
      <use xlink:href="#DejaVuSans-33" transform="translate(208.007812 0)"/>
      <use xlink:href="#DejaVuSans-30" transform="translate(271.630859 0)"/>
      <use xlink:href="#DejaVuSans-30" transform="translate(335.253906 0)"/>
     </g>
    </g>
   </g>
   <g id="text_4">
    <g clip-path="url(#pe005f299b1)">
     <!-- GLN288 -->
     <g transform="translate(302.79104 196.689618) scale(0.052613 -0.052613)">
      <use xlink:href="#DejaVuSans-47"/>
      <use xlink:href="#DejaVuSans-4c" transform="translate(77.490234 0)"/>
      <use xlink:href="#DejaVuSans-4e" transform="translate(133.203125 0)"/>
      <use xlink:href="#DejaVuSans-32" transform="translate(208.007812 0)"/>
      <use xlink:href="#DejaVuSans-38" transform="translate(271.630859 0)"/>
      <use xlink:href="#DejaVuSans-38" transform="translate(335.253906 0)"/>
     </g>
    </g>
   </g>
   <g id="text_5">
    <g clip-path="url(#pe005f299b1)">
     <!-- GLN291 -->
     <g transform="translate(270.596856 86.725982) scale(0.052613 -0.052613)">
      <defs>
       <path id="DejaVuSans-31" d="M 794 531 
L 1825 531 
L 1825 4091 
L 703 3866 
L 703 4441 
L 1819 4666 
L 2450 4666 
L 2450 531 
L 3481 531 
L 3481 0 
L 794 0 
L 794 531 
z
" transform="scale(0.015625)"/>
      </defs>
      <use xlink:href="#DejaVuSans-47"/>
      <use xlink:href="#DejaVuSans-4c" transform="translate(77.490234 0)"/>
      <use xlink:href="#DejaVuSans-4e" transform="translate(133.203125 0)"/>
      <use xlink:href="#DejaVuSans-32" transform="translate(208.007812 0)"/>
      <use xlink:href="#DejaVuSans-39" transform="translate(271.630859 0)"/>
      <use xlink:href="#DejaVuSans-31" transform="translate(335.253906 0)"/>
     </g>
    </g>
   </g>
   <g id="text_6">
    <g clip-path="url(#pe005f299b1)">
     <!-- GLN280 -->
     <g transform="translate(361.958728 86.725982) scale(0.052613 -0.052613)">
      <use xlink:href="#DejaVuSans-47"/>
      <use xlink:href="#DejaVuSans-4c" transform="translate(77.490234 0)"/>
      <use xlink:href="#DejaVuSans-4e" transform="translate(133.203125 0)"/>
      <use xlink:href="#DejaVuSans-32" transform="translate(208.007812 0)"/>
      <use xlink:href="#DejaVuSans-38" transform="translate(271.630859 0)"/>
      <use xlink:href="#DejaVuSans-30" transform="translate(335.253906 0)"/>
     </g>
    </g>
   </g>
   <g id="text_7">
    <g clip-path="url(#pe005f299b1)">
     <!-- GLN277 -->
     <g transform="translate(439.398791 141.7078) scale(0.052613 -0.052613)">
      <defs>
       <path id="DejaVuSans-37" d="M 525 4666 
L 3525 4666 
L 3525 4397 
L 1831 0 
L 1172 0 
L 2766 4134 
L 525 4134 
L 525 4666 
z
" transform="scale(0.015625)"/>
      </defs>
      <use xlink:href="#DejaVuSans-47"/>
      <use xlink:href="#DejaVuSans-4c" transform="translate(77.490234 0)"/>
      <use xlink:href="#DejaVuSans-4e" transform="translate(133.203125 0)"/>
      <use xlink:href="#DejaVuSans-32" transform="translate(208.007812 0)"/>
      <use xlink:href="#DejaVuSans-37" transform="translate(271.630859 0)"/>
      <use xlink:href="#DejaVuSans-37" transform="translate(335.253906 0)"/>
     </g>
    </g>
   </g>
   <g id="text_8">
    <g clip-path="url(#pe005f299b1)">
     <!-- GLN307 -->
     <g transform="translate(530.760663 141.7078) scale(0.052613 -0.052613)">
      <use xlink:href="#DejaVuSans-47"/>
      <use xlink:href="#DejaVuSans-4c" transform="translate(77.490234 0)"/>
      <use xlink:href="#DejaVuSans-4e" transform="translate(133.203125 0)"/>
      <use xlink:href="#DejaVuSans-33" transform="translate(208.007812 0)"/>
      <use xlink:href="#DejaVuSans-30" transform="translate(271.630859 0)"/>
      <use xlink:href="#DejaVuSans-37" transform="translate(335.253906 0)"/>
     </g>
    </g>
   </g>
   <g id="text_9">
    <g clip-path="url(#pe005f299b1)">
     <!-- GLN289B -->
     <g transform="translate(261.831067 251.671436) scale(0.052613 -0.052613)">
      <defs>
       <path id="DejaVuSans-42" d="M 1259 2228 
L 1259 519 
L 2272 519 
Q 2781 519 3026 730 
Q 3272 941 3272 1375 
Q 3272 1813 3026 2020 
Q 2781 2228 2272 2228 
L 1259 2228 
z
M 1259 4147 
L 1259 2741 
L 2194 2741 
Q 2656 2741 2882 2914 
Q 3109 3088 3109 3444 
Q 3109 3797 2882 3972 
Q 2656 4147 2194 4147 
L 1259 4147 
z
M 628 4666 
L 2241 4666 
Q 2963 4666 3353 4366 
Q 3744 4066 3744 3513 
Q 3744 3084 3544 2831 
Q 3344 2578 2956 2516 
Q 3422 2416 3680 2098 
Q 3938 1781 3938 1306 
Q 3938 681 3513 340 
Q 3088 0 2303 0 
L 628 0 
L 628 4666 
z
" transform="scale(0.015625)"/>
      </defs>
      <use xlink:href="#DejaVuSans-47"/>
      <use xlink:href="#DejaVuSans-4c" transform="translate(77.490234 0)"/>
      <use xlink:href="#DejaVuSans-4e" transform="translate(133.203125 0)"/>
      <use xlink:href="#DejaVuSans-32" transform="translate(208.007812 0)"/>
      <use xlink:href="#DejaVuSans-38" transform="translate(271.630859 0)"/>
      <use xlink:href="#DejaVuSans-39" transform="translate(335.253906 0)"/>
      <use xlink:href="#DejaVuSans-42" transform="translate(398.876953 0)"/>
     </g>
    </g>
   </g>
   <g id="text_10">
    <g clip-path="url(#pe005f299b1)">
     <!-- GLN309 -->
     <g transform="translate(453.3206 31.744164) scale(0.052613 -0.052613)">
      <use xlink:href="#DejaVuSans-47"/>
      <use xlink:href="#DejaVuSans-4c" transform="translate(77.490234 0)"/>
      <use xlink:href="#DejaVuSans-4e" transform="translate(133.203125 0)"/>
      <use xlink:href="#DejaVuSans-33" transform="translate(208.007812 0)"/>
      <use xlink:href="#DejaVuSans-30" transform="translate(271.630859 0)"/>
      <use xlink:href="#DejaVuSans-39" transform="translate(335.253906 0)"/>
     </g>
    </g>
   </g>
   <g id="text_11">
    <g clip-path="url(#pe005f299b1)">
     <!-- GLN306 -->
     <g transform="translate(146.170688 141.7078) scale(0.052613 -0.052613)">
      <defs>
       <path id="DejaVuSans-36" d="M 2113 2584 
Q 1688 2584 1439 2293 
Q 1191 2003 1191 1497 
Q 1191 994 1439 701 
Q 1688 409 2113 409 
Q 2538 409 2786 701 
Q 3034 994 3034 1497 
Q 3034 2003 2786 2293 
Q 2538 2584 2113 2584 
z
M 3366 4563 
L 3366 3988 
Q 3128 4100 2886 4159 
Q 2644 4219 2406 4219 
Q 1781 4219 1451 3797 
Q 1122 3375 1075 2522 
Q 1259 2794 1537 2939 
Q 1816 3084 2150 3084 
Q 2853 3084 3261 2657 
Q 3669 2231 3669 1497 
Q 3669 778 3244 343 
Q 2819 -91 2113 -91 
Q 1303 -91 875 529 
Q 447 1150 447 2328 
Q 447 3434 972 4092 
Q 1497 4750 2381 4750 
Q 2619 4750 2861 4703 
Q 3103 4656 3366 4563 
z
" transform="scale(0.015625)"/>
      </defs>
      <use xlink:href="#DejaVuSans-47"/>
      <use xlink:href="#DejaVuSans-4c" transform="translate(77.490234 0)"/>
      <use xlink:href="#DejaVuSans-4e" transform="translate(133.203125 0)"/>
      <use xlink:href="#DejaVuSans-33" transform="translate(208.007812 0)"/>
      <use xlink:href="#DejaVuSans-30" transform="translate(271.630859 0)"/>
      <use xlink:href="#DejaVuSans-36" transform="translate(335.253906 0)"/>
     </g>
    </g>
   </g>
   <g id="text_12">
    <g clip-path="url(#pe005f299b1)">
     <!-- GLN301 -->
     <g transform="translate(54.812296 141.7078) scale(0.052613 -0.052613)">
      <use xlink:href="#DejaVuSans-47"/>
      <use xlink:href="#DejaVuSans-4c" transform="translate(77.490234 0)"/>
      <use xlink:href="#DejaVuSans-4e" transform="translate(133.203125 0)"/>
      <use xlink:href="#DejaVuSans-33" transform="translate(208.007812 0)"/>
      <use xlink:href="#DejaVuSans-30" transform="translate(271.630859 0)"/>
      <use xlink:href="#DejaVuSans-31" transform="translate(335.253906 0)"/>
     </g>
    </g>
   </g>
  </g>
 </g>
 <defs>
  <clipPath id="pe005f299b1">
   <rect x="7.2" y="7.2" width="669.6" height="266.112"/>
  </clipPath>
 </defs>
</svg>
