<?xml version="1.0" encoding="UTF-8" standalone="no"?>
<svg
   width="583.68842pt"
   height="250.22728pt"
   viewBox="0 0 583.68842 250.22729"
   version="1.1"
   id="svg51"
   sodipodi:docname="reconstructed_pedigree_cropped.svg"
   inkscape:export-filename="reconstructed_pedigree_cropped.pdf"
   inkscape:export-xdpi="96"
   inkscape:export-ydpi="96"
   inkscape:version="1.4.3 (0d15f75, 2025-12-25)"
   xmlns:inkscape="http://www.inkscape.org/namespaces/inkscape"
   xmlns:sodipodi="http://sodipodi.sourceforge.net/DTD/sodipodi-0.dtd"
   xmlns:xlink="http://www.w3.org/1999/xlink"
   xmlns="http://www.w3.org/2000/svg"
   xmlns:svg="http://www.w3.org/2000/svg"
   xmlns:rdf="http://www.w3.org/1999/02/22-rdf-syntax-ns#"
   xmlns:cc="http://creativecommons.org/ns#"
   xmlns:dc="http://purl.org/dc/elements/1.1/">
  <sodipodi:namedview
     id="namedview51"
     pagecolor="#ffffff"
     bordercolor="#000000"
     borderopacity="0.25"
     inkscape:showpageshadow="2"
     inkscape:pageopacity="0.0"
     inkscape:pagecheckerboard="0"
     inkscape:deskcolor="#d1d1d1"
     inkscape:document-units="pt"
     inkscape:zoom="0.38143966"
     inkscape:cx="564.96485"
     inkscape:cy="391.93617"
     inkscape:window-width="1308"
     inkscape:window-height="676"
     inkscape:window-x="0"
     inkscape:window-y="33"
     inkscape:window-maximized="0"
     inkscape:current-layer="svg51" />
  <metadata
     id="metadata1">
    <rdf:RDF>
      <cc:Work>
        <dc:type
           rdf:resource="http://purl.org/dc/dcmitype/StillImage" />
        <dc:date>2026-04-22T11:18:45.645900</dc:date>
        <dc:format>image/svg+xml</dc:format>
        <dc:creator>
          <cc:Agent>
            <dc:title>Matplotlib v3.10.8, https://matplotlib.org/</dc:title>
          </cc:Agent>
        </dc:creator>
      </cc:Work>
    </rdf:RDF>
  </metadata>
  <defs
     id="defs1">
    <style
       type="text/css"
       id="style1">*{stroke-linejoin: round; stroke-linecap: butt}</style>
  </defs>
  <g
     id="patch_1"
     transform="translate(-50.155785,-15.142364)">
    <path
       d="M 0,280.512 H 684 V 0 H 0 Z"
       style="fill:#ffffff"
       id="path1" />
  </g>
  <g
     id="axes_1"
     transform="translate(-50.155785,-15.142364)">
    <g
       id="patch_2">
      <path
         d="m 136.09317,44.514345 q 24.82433,22.432653 49.3998,44.640427"
         clip-path="url(#paed38a22df)"
         style="fill:none;stroke:#000000;stroke-width:0.3;stroke-linecap:round"
         id="path2" />
      <path
         d="m 184.02881,85.40561 1.46416,3.749162 -3.87783,-1.078164 z"
         clip-path="url(#paed38a22df)"
         style="stroke:#000000;stroke-width:0.3;stroke-linecap:round"
         id="path3" />
    </g>
    <g
       id="patch_3">
      <path
         d="M 140.42562,37.155023 Q 334.75554,103.60106 528.76809,169.93858"
         clip-path="url(#paed38a22df)"
         style="fill:none;stroke:#000000;stroke-width:0.3;stroke-linecap:round"
         id="path4" />
      <path
         d="m 525.94407,167.07066 2.82402,2.86792 -3.98875,0.53846 z"
         clip-path="url(#paed38a22df)"
         style="stroke:#000000;stroke-width:0.3;stroke-linecap:round"
         id="path5" />
    </g>
    <g
       id="patch_4">
      <path
         d="M 140.91679,35.495009 Q 265.21952,66.94654 389.19708,98.315797"
         clip-path="url(#paed38a22df)"
         style="fill:none;stroke:#000000;stroke-width:0.3;stroke-linecap:round"
         id="path6" />
      <path
         d="m 386.14859,95.687732 3.04849,2.628065 -3.93154,0.861951 z"
         clip-path="url(#paed38a22df)"
         style="stroke:#000000;stroke-width:0.3;stroke-linecap:round"
         id="path7" />
    </g>
    <g
       id="patch_5">
      <path
         d="M 112.89753,50.154366 Q 92.829202,103.60449 72.878773,156.7406"
         clip-path="url(#paed38a22df)"
         style="fill:none;stroke:#000000;stroke-width:0.3;stroke-linecap:round"
         id="path8" />
      <path
         d="m 75.829311,154.00302 -2.950538,2.73758 -0.419738,-4.00298 z"
         clip-path="url(#paed38a22df)"
         style="stroke:#000000;stroke-width:0.3;stroke-linecap:round"
         id="path9" />
    </g>
    <g
       id="patch_6">
      <path
         d="M 597.66434,106.38735 Q 341.99844,140.25621 86.665056,174.08102"
         clip-path="url(#paed38a22df)"
         style="fill:none;stroke:#000000;stroke-width:0.3;stroke-linecap:round"
         id="path10" />
      <path
         d="m 90.470264,175.39265 -3.805208,-1.31163 3.332435,-2.25719 z"
         clip-path="url(#paed38a22df)"
         style="stroke:#000000;stroke-width:0.3;stroke-linecap:round"
         id="path11" />
    </g>
    <g
       id="patch_7">
      <path
         d="m 604.09655,118.99126 q -20.17089,21.26547 -40.11095,42.28759"
         clip-path="url(#paed38a22df)"
         style="fill:none;stroke:#000000;stroke-width:0.3;stroke-linecap:round"
         id="path12" />
      <path
         d="m 567.76903,159.90567 -3.78343,1.37318 1.17151,-3.85066 z"
         clip-path="url(#paed38a22df)"
         style="stroke:#000000;stroke-width:0.3;stroke-linecap:round"
         id="path13" />
    </g>
    <g
       id="patch_8">
      <path
         d="m 82.663189,189.11008 q 34.795191,24.45557 69.315961,48.71827"
         clip-path="url(#paed38a22df)"
         style="fill:none;stroke:#000000;stroke-width:0.3;stroke-linecap:round"
         id="path14" />
      <path
         d="m 150.06889,234.28563 1.91026,3.54272 -3.98034,-0.59743 z"
         clip-path="url(#paed38a22df)"
         style="stroke:#000000;stroke-width:0.3;stroke-linecap:round"
         id="path15" />
    </g>
    <g
       id="patch_9">
      <path
         d="M 390.07495,37.325052 Q 305.78474,66.946466 221.81097,96.456676"
         clip-path="url(#paed38a22df)"
         style="fill:none;stroke:#000000;stroke-width:0.3;stroke-linecap:round"
         id="path16" />
      <path
         d="m 225.80413,96.961304 -3.99316,-0.504628 2.7996,-2.891753 z"
         clip-path="url(#paed38a22df)"
         style="stroke:#000000;stroke-width:0.3;stroke-linecap:round"
         id="path17" />
    </g>
    <g
       id="patch_10">
      <path
         d="m 410.08706,51.505645 q 0,15.442096 0,30.548782"
         clip-path="url(#paed38a22df)"
         style="fill:none;stroke:#000000;stroke-width:0.3;stroke-linecap:round"
         id="path18" />
      <path
         d="m 411.88706,78.454427 -1.8,3.6 -1.8,-3.6 z"
         clip-path="url(#paed38a22df)"
         style="stroke:#000000;stroke-width:0.3;stroke-linecap:round"
         id="path19" />
    </g>
    <g
       id="patch_11">
      <path
         d="m 430.09916,37.325052 q 84.29021,29.621414 168.26399,59.131624"
         clip-path="url(#paed38a22df)"
         style="fill:none;stroke:#000000;stroke-width:0.3;stroke-linecap:round"
         id="path20" />
      <path
         d="m 595.56355,93.564923 2.7996,2.891753 -3.99316,0.504628 z"
         clip-path="url(#paed38a22df)"
         style="stroke:#000000;stroke-width:0.3;stroke-linecap:round"
         id="path21" />
    </g>
    <g
       id="patch_12">
      <path
         d="m 256.55554,189.11008 q -34.79519,24.45557 -69.31596,48.71827"
         clip-path="url(#paed38a22df)"
         style="fill:none;stroke:#000000;stroke-width:0.3;stroke-linecap:round"
         id="path22" />
      <path
         d="m 191.21991,237.23092 -3.98033,0.59743 1.91025,-3.54272 z"
         clip-path="url(#paed38a22df)"
         style="stroke:#000000;stroke-width:0.3;stroke-linecap:round"
         id="path23" />
    </g>
    <g
       id="patch_13">
      <path
         d="m 618.69421,51.505645 q 0,15.442096 0,30.548782"
         clip-path="url(#paed38a22df)"
         style="fill:none;stroke:#000000;stroke-width:0.3;stroke-linecap:round"
         id="path24" />
      <path
         d="m 620.49422,78.454427 -1.80001,3.6 -1.79999,-3.6 z"
         clip-path="url(#paed38a22df)"
         style="stroke:#000000;stroke-width:0.3;stroke-linecap:round"
         id="path25" />
    </g>
    <g
       id="PathCollection_1">
      <path
         d="m 50.305785,191.91055 h 30 v -30 h -30 z"
         clip-path="url(#paed38a22df)"
         style="fill:#1f77b4;fill-opacity:0.5;stroke:#000000;stroke-width:0.3"
         id="path26" />
      <path
         d="m 186.4799,118.60146 h 30 V 88.601455 h -30 z"
         clip-path="url(#paed38a22df)"
         style="fill:#1f77b4;fill-opacity:0.5;stroke:#000000;stroke-width:0.3"
         id="path27" />
      <path
         d="m 534.1585,191.91055 h 30 v -30 h -30 z"
         clip-path="url(#paed38a22df)"
         style="fill:#1f77b4;fill-opacity:0.5;stroke:#000000;stroke-width:0.3"
         id="path28" />
      <path
         d="m 395.08706,118.60146 h 30 V 88.601455 h -30 z"
         clip-path="url(#paed38a22df)"
         style="fill:#1f77b4;fill-opacity:0.5;stroke:#000000;stroke-width:0.3"
         id="path29" />
      <path
         d="m 154.60936,265.21964 h 30 v -30 h -30 z"
         clip-path="url(#paed38a22df)"
         style="fill:#8c564b;fill-opacity:0.5;stroke:#000000;stroke-width:0.3"
         id="path30" />
    </g>
    <g
       id="PathCollection_2">
      <defs
         id="defs30">
        <path
           id="C0_0_8c56e0c540"
           d="M 0,15 C 3.978047,15 7.793698,13.419505 10.606602,10.606602 13.419505,7.793698 15,3.978047 15,0 15,-3.978047 13.419505,-7.793698 10.606602,-10.606602 7.793698,-13.419505 3.978047,-15 0,-15 c -3.978047,0 -7.793698,1.580495 -10.606602,4.393398 C -13.419505,-7.793698 -15,-3.978047 -15,0 c 0,3.978047 1.580495,7.793698 4.393398,10.606602 C -7.793698,13.419505 -3.978047,15 0,15 Z" />
      </defs>
      <g
         clip-path="url(#paed38a22df)"
         id="g30">
        <use
           xlink:href="#C0_0_8c56e0c540"
           x="410.08707"
           y="30.292364"
           style="fill:#1f77b4;fill-opacity:0.5;stroke:#000000;stroke-width:0.3"
           id="use30" />
      </g>
      <g
         clip-path="url(#paed38a22df)"
         id="g31">
        <use
           xlink:href="#C0_0_8c56e0c540"
           x="273.91293"
           y="176.91054"
           style="fill:#8c564b;fill-opacity:0.5;stroke:#000000;stroke-width:0.3"
           id="use31" />
      </g>
    </g>
    <g
       id="PathCollection_3">
      <path
         d="m 105.3549,45.292364 h 30 v -30 h -30 z"
         clip-path="url(#paed38a22df)"
         style="fill:#e5e5e5;fill-opacity:0.5;stroke:#000000;stroke-width:0.3"
         id="path31" />
      <path
         d="m 603.69421,45.292364 h 30 v -30 h -30 z"
         clip-path="url(#paed38a22df)"
         style="fill:#e5e5e5;fill-opacity:0.5;stroke:#000000;stroke-width:0.3"
         id="path32" />
    </g>
    <g
       id="PathCollection_4">
      <defs
         id="defs32">
        <path
           id="m5cd679e429"
           d="M 0,15 C 3.978047,15 7.793698,13.419505 10.606602,10.606602 13.419505,7.793698 15,3.978047 15,0 15,-3.978047 13.419505,-7.793698 10.606602,-10.606602 7.793698,-13.419505 3.978047,-15 0,-15 c -3.978047,0 -7.793698,1.580495 -10.606602,4.393398 C -13.419505,-7.793698 -15,-3.978047 -15,0 c 0,3.978047 1.580495,7.793698 4.393398,10.606602 C -7.793698,13.419505 -3.978047,15 0,15 Z"
           style="stroke:#000000;stroke-width:0.3" />
      </defs>
      <g
         clip-path="url(#paed38a22df)"
         id="g32">
        <use
           xlink:href="#m5cd679e429"
           x="618.69421"
           y="103.60146"
           style="fill:#e5e5e5;fill-opacity:0.5;stroke:#000000;stroke-width:0.3"
           id="use32" />
      </g>
    </g>
    <g
       id="text_1">
      <g
         clip-path="url(#paed38a22df)"
         id="g36">
        <!-- K10 -->
        <g
           transform="matrix(0.1,0,0,-0.1,55.664379,179.66992)"
           id="g35">
          <defs
             id="defs33">
            <path
               id="DejaVuSans-4b"
               d="m 628,4666 h 631 V 2694 l 2094,1972 h 813 L 1850,2491 4331,0 H 3500 L 1259,2247 V 0 H 628 Z"
               transform="scale(0.015625)" />
            <path
               id="DejaVuSans-31"
               d="M 794,531 H 1825 V 4091 L 703,3866 v 575 l 1116,225 h 631 V 531 H 3481 V 0 H 794 Z"
               transform="scale(0.015625)" />
            <path
               id="DejaVuSans-30"
               d="m 2034,4250 q -487,0 -733,-480 -245,-479 -245,-1442 0,-959 245,-1439 246,-480 733,-480 491,0 736,480 246,480 246,1439 0,963 -246,1442 -245,480 -736,480 z m 0,500 q 785,0 1199,-621 414,-620 414,-1801 0,-1178 -414,-1799 -414,-620 -1199,-620 -784,0 -1198,620 -414,621 -414,1799 0,1181 414,1801 414,621 1198,621 z"
               transform="scale(0.015625)" />
          </defs>
          <use
             xlink:href="#DejaVuSans-4b"
             id="use33" />
          <use
             xlink:href="#DejaVuSans-31"
             transform="translate(65.576172)"
             id="use34" />
          <use
             xlink:href="#DejaVuSans-30"
             transform="translate(129.19922)"
             id="use35" />
        </g>
      </g>
    </g>
    <g
       id="text_2">
      <g
         clip-path="url(#paed38a22df)"
         id="g39">
        <!-- K14 -->
        <g
           transform="matrix(0.1,0,0,-0.1,400.44565,33.051739)"
           id="g38">
          <defs
             id="defs36">
            <path
               id="DejaVuSans-34"
               d="M 2419,4116 825,1625 h 1594 z m -166,550 h 794 V 1625 h 666 V 1100 H 3047 V 0 H 2419 V 1100 H 313 v 609 z"
               transform="scale(0.015625)" />
          </defs>
          <use
             xlink:href="#DejaVuSans-4b"
             id="use36" />
          <use
             xlink:href="#DejaVuSans-31"
             transform="translate(65.576172)"
             id="use37" />
          <use
             xlink:href="#DejaVuSans-34"
             transform="translate(129.19922)"
             id="use38" />
        </g>
      </g>
    </g>
    <g
       id="text_3">
      <g
         clip-path="url(#paed38a22df)"
         id="g41">
        <!-- K1 -->
        <g
           transform="matrix(0.1,0,0,-0.1,267.45279,179.66992)"
           id="g40">
          <use
             xlink:href="#DejaVuSans-4b"
             id="use39" />
          <use
             xlink:href="#DejaVuSans-31"
             transform="translate(65.576172)"
             id="use40" />
        </g>
      </g>
    </g>
    <g
       id="text_4">
      <g
         clip-path="url(#paed38a22df)"
         id="g43">
        <!-- K5 -->
        <g
           transform="matrix(0.1,0,0,-0.1,195.01974,106.36083)"
           id="g42">
          <defs
             id="defs41">
            <path
               id="DejaVuSans-35"
               d="M 691,4666 H 3169 V 4134 H 1269 V 2991 q 137,47 274,70 138,23 276,23 781,0 1237,-428 457,-428 457,-1159 Q 3513,744 3044,326 2575,-91 1722,-91 1428,-91 1123,-41 819,9 494,109 v 635 q 281,-153 581,-228 300,-75 634,-75 541,0 856,284 316,284 316,772 0,487 -316,771 -315,285 -856,285 -253,0 -505,-56 -251,-56 -513,-175 z"
               transform="scale(0.015625)" />
          </defs>
          <use
             xlink:href="#DejaVuSans-4b"
             id="use41" />
          <use
             xlink:href="#DejaVuSans-35"
             transform="translate(65.576172)"
             id="use42" />
        </g>
      </g>
    </g>
    <g
       id="text_5">
      <g
         clip-path="url(#paed38a22df)"
         id="g46">
        <!-- K11 -->
        <g
           transform="matrix(0.1,0,0,-0.1,539.51709,179.66992)"
           id="g45">
          <use
             xlink:href="#DejaVuSans-4b"
             id="use43" />
          <use
             xlink:href="#DejaVuSans-31"
             transform="translate(65.576172)"
             id="use44" />
          <use
             xlink:href="#DejaVuSans-31"
             transform="translate(129.19922)"
             id="use45" />
        </g>
      </g>
    </g>
    <g
       id="text_6">
      <g
         clip-path="url(#paed38a22df)"
         id="g49">
        <!-- K15 -->
        <g
           transform="matrix(0.1,0,0,-0.1,400.44565,106.36083)"
           id="g48">
          <use
             xlink:href="#DejaVuSans-4b"
             id="use46" />
          <use
             xlink:href="#DejaVuSans-31"
             transform="translate(65.576172)"
             id="use47" />
          <use
             xlink:href="#DejaVuSans-35"
             transform="translate(129.19922)"
             id="use48" />
        </g>
      </g>
    </g>
    <g
       id="text_7">
      <g
         clip-path="url(#paed38a22df)"
         id="g51">
        <!-- K2 -->
        <g
           transform="matrix(0.1,0,0,-0.1,163.14921,252.97901)"
           id="g50">
          <defs
             id="defs49">
            <path
               id="DejaVuSans-32"
               d="M 1228,531 H 3431 V 0 H 469 v 531 q 359,372 979,998 621,627 780,809 303,340 423,576 121,236 121,464 0,372 -261,606 -261,235 -680,235 -297,0 -627,-103 -329,-103 -704,-313 v 638 q 381,153 712,231 332,78 607,78 725,0 1156,-363 431,-362 431,-968 0,-288 -108,-546 -107,-257 -392,-607 -78,-91 -497,-524 Q 1991,1309 1228,531 Z"
               transform="scale(0.015625)" />
          </defs>
          <use
             xlink:href="#DejaVuSans-4b"
             id="use49" />
          <use
             xlink:href="#DejaVuSans-32"
             transform="translate(65.576172)"
             id="use50" />
        </g>
      </g>
    </g>
  </g>
  <defs
     id="defs51">
    <clipPath
       id="paed38a22df">
      <rect
         x="7.1999998"
         y="7.1999998"
         width="669.59998"
         height="266.112"
         id="rect51" />
    </clipPath>
  </defs>
</svg>
